<?xml version="1.0" encoding="UTF-8" standalone="no"?>
<!-- Created with Inkscape (http://www.inkscape.org/) -->

<svg
   version="1.1"
   id="svg41187"
   width="24"
   height="24"
   viewBox="0 0 24 24"
   sodipodi:docname="bonus.svg"
   inkscape:version="1.3 (0e150ed, 2023-07-21)"
   xmlns:inkscape="http://www.inkscape.org/namespaces/inkscape"
   xmlns:sodipodi="http://sodipodi.sourceforge.net/DTD/sodipodi-0.dtd"
   xmlns="http://www.w3.org/2000/svg"
   xmlns:svg="http://www.w3.org/2000/svg">
  <defs
     id="defs41191">
    <clipPath
       clipPathUnits="userSpaceOnUse"
       id="clipPath41203">
      <path
         d="M 0,24 H 24 V 0 H 0 Z"
         id="path41201" />
    </clipPath>
    <clipPath
       clipPathUnits="userSpaceOnUse"
       id="clipPath41211">
      <path
         d="M 2.00005,22 H 22 V 2.00005 H 2.00005 Z"
         id="path41209" />
    </clipPath>
    <clipPath
       clipPathUnits="userSpaceOnUse"
       id="clipPath41227">
      <path
         d="M 3,21 H 21 V 3 H 3 Z"
         id="path41225" />
    </clipPath>
    <clipPath
       clipPathUnits="userSpaceOnUse"
       id="clipPath41243">
      <path
         d="M 4,22 H 20 V 2 H 4 Z"
         id="path41241" />
    </clipPath>
    <clipPath
       clipPathUnits="userSpaceOnUse"
       id="clipPath41259">
      <path
         d="M 2,20 H 22 V 4 H 2 Z"
         id="path41257" />
    </clipPath>
    <clipPath
       clipPathUnits="userSpaceOnUse"
       id="clipPath41275">
      <path
         d="M 0,24 H 24 V 0 H 0 Z"
         id="path41273" />
    </clipPath>
    <clipPath
       clipPathUnits="userSpaceOnUse"
       id="clipPath41285">
      <path
         d="M 0,48 H 48 V 0 H 0 Z"
         id="path41283" />
    </clipPath>
    <clipPath
       clipPathUnits="userSpaceOnUse"
       id="clipPath41293">
      <path
         d="M 0,24 H 24 V 0 H 0 Z"
         id="path41291" />
    </clipPath>
    <clipPath
       clipPathUnits="userSpaceOnUse"
       id="clipPath41301">
      <path
         d="M -2.13623e-4,24.0002 H 23.9997 V 2.74658e-4 H -2.13623e-4 Z"
         id="path41299" />
    </clipPath>
    <clipPath
       clipPathUnits="userSpaceOnUse"
       id="clipPath41305">
      <path
         d="M -2.13623e-4,47.9998 H 47.9998 V -1.52588e-4 H -2.13623e-4 Z"
         id="path41303" />
    </clipPath>
    <clipPath
       clipPathUnits="userSpaceOnUse"
       id="clipPath41309">
      <path
         d="M 48,48 H 0 V 0 h 48 z"
         id="path41307" />
    </clipPath>
    <clipPath
       clipPathUnits="userSpaceOnUse"
       id="clipPath41517">
      <path
         d="M 0,24 H 24 V 0 H 0 Z"
         id="path41515" />
    </clipPath>
    <clipPath
       clipPathUnits="userSpaceOnUse"
       id="clipPath41527">
      <path
         d="M -2.28882e-4,48.0001 H 47.9998 V 1.2207e-4 H -2.28882e-4 Z"
         id="path41525" />
    </clipPath>
    <clipPath
       clipPathUnits="userSpaceOnUse"
       id="clipPath41535">
      <path
         d="M -2.28882e-4,48.0001 H 47.9998 V 1.2207e-4 H -2.28882e-4 Z"
         id="path41533" />
    </clipPath>
    <clipPath
       clipPathUnits="userSpaceOnUse"
       id="clipPath41539">
      <path
         d="M 0,0 H 48 V 48 H 0 Z"
         id="path41537" />
    </clipPath>
  </defs>
  <sodipodi:namedview
     id="namedview41189"
     pagecolor="#505050"
     bordercolor="#eeeeee"
     borderopacity="1"
     inkscape:showpageshadow="0"
     inkscape:pageopacity="0"
     inkscape:pagecheckerboard="0"
     inkscape:deskcolor="#505050"
     showgrid="true"
     inkscape:zoom="1.9927695"
     inkscape:cx="4.5163277"
     inkscape:cy="-13.298076"
     inkscape:window-width="1512"
     inkscape:window-height="860"
     inkscape:window-x="0"
     inkscape:window-y="38"
     inkscape:window-maximized="0"
     inkscape:current-layer="svg41187">
    <inkscape:page
       x="0"
       y="0"
       id="page41193"
       width="24"
       height="24"
       margin="0"
       bleed="0" />
    <inkscape:grid
       type="xygrid"
       id="grid41720"
       originx="0"
       originy="0"
       empspacing="4"
       spacingy="1"
       spacingx="1"
       units="px"
       visible="true" />
  </sodipodi:namedview>
  <g
     inkscape:groupmode="layer"
     id="layer8"
     inkscape:label="Image">
    <path
       d="m 3.0000001,-14.25 c -1.5000001,0 -1.5000001,-1.5 0,-1.5 l 1.5,0 0,-1.5 c 0,-1.5 1.5000001,-1.5 1.5000001,0 l 0,1.5 1.5,0 c 1.4999998,0 1.4999998,1.5 0,1.5 l -1.5,0 0,1.5 c 0,1.499999 -1.5000001,1.499999 -1.5000001,0 l 0,-1.5 z M 10.5,-19.5 H 6.7500006 l 1.4999998,-1.500001 H 12 V -10.5 h 3 c 1.5,0 1.5,1.4999995 0,1.4999995 H 7.5000006 c -1.5,0 -1.5,-1.4999995 0,-1.4999995 H 10.5 Z"
       id="text1"
       style="font-size:12px;line-height:2.9;font-family:Futura;-inkscape-font-specification:Futura;text-align:center;letter-spacing:0px;text-anchor:middle;fill:#ffffff;stroke-width:0.75;stroke-linecap:round;stroke-linejoin:round"
       transform="matrix(1.3333333,0,0,1.3333333,0,32)"
       aria-label="+1"
       sodipodi:nodetypes="cccccccccccccccccccccccc" />
  </g>
</svg>
