<?xml version="1.0" encoding="UTF-8" standalone="no"?>
<!-- Created with Inkscape (http://www.inkscape.org/) -->

<svg
   version="1.1"
   id="svg41187"
   width="24"
   height="24"
   viewBox="0 0 32 32"
   sodipodi:docname="brain_probe.svg"
   inkscape:version="1.3 (0e150ed, 2023-07-21)"
   xmlns:inkscape="http://www.inkscape.org/namespaces/inkscape"
   xmlns:sodipodi="http://sodipodi.sourceforge.net/DTD/sodipodi-0.dtd"
   xmlns="http://www.w3.org/2000/svg"
   xmlns:svg="http://www.w3.org/2000/svg">
  <defs
     id="defs41191">
    <clipPath
       clipPathUnits="userSpaceOnUse"
       id="clipPath41203">
      <path
         d="M 0,24 H 24 V 0 H 0 Z"
         id="path41201" />
    </clipPath>
    <clipPath
       clipPathUnits="userSpaceOnUse"
       id="clipPath41211">
      <path
         d="M 2.00005,22 H 22 V 2.00005 H 2.00005 Z"
         id="path41209" />
    </clipPath>
    <clipPath
       clipPathUnits="userSpaceOnUse"
       id="clipPath41227">
      <path
         d="M 3,21 H 21 V 3 H 3 Z"
         id="path41225" />
    </clipPath>
    <clipPath
       clipPathUnits="userSpaceOnUse"
       id="clipPath41243">
      <path
         d="M 4,22 H 20 V 2 H 4 Z"
         id="path41241" />
    </clipPath>
    <clipPath
       clipPathUnits="userSpaceOnUse"
       id="clipPath41259">
      <path
         d="M 2,20 H 22 V 4 H 2 Z"
         id="path41257" />
    </clipPath>
    <clipPath
       clipPathUnits="userSpaceOnUse"
       id="clipPath41275">
      <path
         d="M 0,24 H 24 V 0 H 0 Z"
         id="path41273" />
    </clipPath>
    <clipPath
       clipPathUnits="userSpaceOnUse"
       id="clipPath41285">
      <path
         d="M 0,48 H 48 V 0 H 0 Z"
         id="path41283" />
    </clipPath>
    <clipPath
       clipPathUnits="userSpaceOnUse"
       id="clipPath41293">
      <path
         d="M 0,24 H 24 V 0 H 0 Z"
         id="path41291" />
    </clipPath>
    <clipPath
       clipPathUnits="userSpaceOnUse"
       id="clipPath41301">
      <path
         d="M -2.13623e-4,24.0002 H 23.9997 V 2.74658e-4 H -2.13623e-4 Z"
         id="path41299" />
    </clipPath>
    <clipPath
       clipPathUnits="userSpaceOnUse"
       id="clipPath41305">
      <path
         d="M -2.13623e-4,47.9998 H 47.9998 V -1.52588e-4 H -2.13623e-4 Z"
         id="path41303" />
    </clipPath>
    <clipPath
       clipPathUnits="userSpaceOnUse"
       id="clipPath41309">
      <path
         d="M 48,48 H 0 V 0 h 48 z"
         id="path41307" />
    </clipPath>
    <clipPath
       clipPathUnits="userSpaceOnUse"
       id="clipPath41517">
      <path
         d="M 0,24 H 24 V 0 H 0 Z"
         id="path41515" />
    </clipPath>
    <clipPath
       clipPathUnits="userSpaceOnUse"
       id="clipPath41527">
      <path
         d="M -2.28882e-4,48.0001 H 47.9998 V 1.2207e-4 H -2.28882e-4 Z"
         id="path41525" />
    </clipPath>
    <clipPath
       clipPathUnits="userSpaceOnUse"
       id="clipPath41535">
      <path
         d="M -2.28882e-4,48.0001 H 47.9998 V 1.2207e-4 H -2.28882e-4 Z"
         id="path41533" />
    </clipPath>
    <clipPath
       clipPathUnits="userSpaceOnUse"
       id="clipPath41539">
      <path
         d="M 0,0 H 48 V 48 H 0 Z"
         id="path41537" />
    </clipPath>
  </defs>
  <sodipodi:namedview
     id="namedview41189"
     pagecolor="#505050"
     bordercolor="#eeeeee"
     borderopacity="1"
     inkscape:showpageshadow="0"
     inkscape:pageopacity="0"
     inkscape:pagecheckerboard="0"
     inkscape:deskcolor="#505050"
     showgrid="true"
     inkscape:zoom="19.452731"
     inkscape:cx="10.898213"
     inkscape:cy="9.2274961"
     inkscape:window-width="1512"
     inkscape:window-height="888"
     inkscape:window-x="0"
     inkscape:window-y="38"
     inkscape:window-maximized="0"
     inkscape:current-layer="g41195">
    <inkscape:page
       x="0"
       y="0"
       id="page41193"
       width="32"
       height="32"
       margin="0"
       bleed="0" />
    <inkscape:grid
       type="xygrid"
       id="grid41720"
       originx="0"
       originy="0"
       empspacing="4"
       spacingy="1"
       spacingx="1"
       units="px"
       visible="true" />
  </sodipodi:namedview>
  <g
     id="g41195"
     inkscape:groupmode="layer"
     inkscape:label="ref"
     transform="matrix(1.3333333,0,0,-1.3333333,0,32)"
     style="display:none">
    <g
       id="g41269"
       style="display:inline">
      <g
         id="g41271"
         clip-path="url(#clipPath41275)">
        <g
           id="g41277"
           transform="matrix(0.4999976,0,0,-0.4999976,-1.144e-4,24.00008)">
          <g
             id="g41279">
            <g
               id="g41281"
               clip-path="url(#clipPath41285)" />
          </g>
        </g>
      </g>
    </g>
    <g
       id="g41511"
       style="display:inline">
      <g
         id="g41513"
         clip-path="url(#clipPath41517)">
        <g
           id="g41519"
           transform="matrix(0.4999976,0,0,-0.4999976,-1.144e-4,24.00008)">
          <g
             id="g41521">
            <g
               id="g41523"
               clip-path="url(#clipPath41527)">
              <g
                 id="g41529">
                <g
                   id="g41531" />
                <g
                   id="g41601">
                  <g
                     clip-path="url(#clipPath41535)"
                     opacity="0.399994"
                     id="g41599">
                    <g
                       id="g41597">
                      <g
                         clip-path="url(#clipPath41539)"
                         id="g41595">
                        <g
                           transform="translate(23.9998,1e-4)"
                           id="g41543">
                          <path
                             d="M 0,0 V 48"
                             style="fill:none;stroke:#000000;stroke-width:0.25;stroke-linecap:butt;stroke-linejoin:miter;stroke-miterlimit:10;stroke-dasharray:none;stroke-opacity:1"
                             id="path41541" />
                        </g>
                        <g
                           transform="translate(47.9998,24.0001)"
                           id="g41547">
                          <path
                             d="M 0,0 H -48"
                             style="fill:none;stroke:#000000;stroke-width:0.25;stroke-linecap:butt;stroke-linejoin:miter;stroke-miterlimit:10;stroke-dasharray:none;stroke-opacity:1"
                             id="path41545" />
                        </g>
                        <g
                           transform="translate(47.9998,16.0001)"
                           id="g41551">
                          <path
                             d="M 0,0 H -48"
                             style="fill:none;stroke:#000000;stroke-width:0.25;stroke-linecap:butt;stroke-linejoin:miter;stroke-miterlimit:10;stroke-dasharray:none;stroke-opacity:1"
                             id="path41549" />
                        </g>
                        <g
                           transform="translate(47.9998,32.0001)"
                           id="g41555">
                          <path
                             d="M 0,0 H -48"
                             style="fill:none;stroke:#000000;stroke-width:0.25;stroke-linecap:butt;stroke-linejoin:miter;stroke-miterlimit:10;stroke-dasharray:none;stroke-opacity:1"
                             id="path41553" />
                        </g>
                        <g
                           transform="translate(31.9998,48.0001)"
                           id="g41559">
                          <path
                             d="M 0,0 V -48"
                             style="fill:none;stroke:#000000;stroke-width:0.25;stroke-linecap:butt;stroke-linejoin:miter;stroke-miterlimit:10;stroke-dasharray:none;stroke-opacity:1"
                             id="path41557" />
                        </g>
                        <g
                           transform="translate(15.9998,48.0001)"
                           id="g41563">
                          <path
                             d="M 0,0 V -48"
                             style="fill:none;stroke:#000000;stroke-width:0.25;stroke-linecap:butt;stroke-linejoin:miter;stroke-miterlimit:10;stroke-dasharray:none;stroke-opacity:1"
                             id="path41561" />
                        </g>
                        <g
                           transform="translate(47.7498,0.2501)"
                           id="g41567">
                          <path
                             d="M 0,0 -47.5,47.5"
                             style="fill:none;stroke:#000000;stroke-width:0.25;stroke-linecap:butt;stroke-linejoin:miter;stroke-miterlimit:10;stroke-dasharray:none;stroke-opacity:1"
                             id="path41565" />
                        </g>
                        <g
                           transform="translate(0.2498,0.2501)"
                           id="g41571">
                          <path
                             d="M 0,0 47.5,47.5"
                             style="fill:none;stroke:#000000;stroke-width:0.25;stroke-linecap:butt;stroke-linejoin:miter;stroke-miterlimit:10;stroke-dasharray:none;stroke-opacity:1"
                             id="path41569" />
                        </g>
                        <g
                           transform="translate(24.0005,13.9999)"
                           id="g41575">
                          <path
                             d="m 0,0 c -5.523,0 -10,4.477 -10,10 0,5.522 4.477,10 10,10 C 5.522,20 10,15.522 10,10 10,4.477 5.522,0 0,0 Z"
                             style="fill:none;stroke:#000000;stroke-width:0.25;stroke-linecap:butt;stroke-linejoin:miter;stroke-miterlimit:10;stroke-dasharray:none;stroke-opacity:1"
                             id="path41573" />
                        </g>
                        <g
                           transform="translate(23.9998,4.0001)"
                           id="g41579">
                          <path
                             d="m 0,0 c -11.054,0 -20,8.947 -20,20 0,11.053 8.946,20 20,20 C 11.053,40 20,31.053 20,20 20,8.947 11.053,0 0,0 Z"
                             style="fill:none;stroke:#000000;stroke-width:0.25;stroke-linecap:butt;stroke-linejoin:miter;stroke-miterlimit:10;stroke-dasharray:none;stroke-opacity:1"
                             id="path41577" />
                        </g>
                        <g
                           transform="translate(37.9998,6.0001)"
                           id="g41583">
                          <path
                             d="m 0,0 h -28 c -2.211,0 -4,1.791 -4,4 v 28 c 0,2.209 1.789,4 4,4 H 0 c 2.211,0 4,-1.791 4,-4 V 4 C 4,1.791 2.211,0 0,0 Z"
                             style="fill:none;stroke:#000000;stroke-width:0.25;stroke-linecap:butt;stroke-linejoin:miter;stroke-miterlimit:10;stroke-dasharray:none;stroke-opacity:1"
                             id="path41581" />
                        </g>
                        <g
                           transform="translate(39.9998,8.0001)"
                           id="g41587">
                          <path
                             d="m 0,0 h -32 c -2.209,0 -4,1.791 -4,4 v 24 c 0,2.209 1.791,4 4,4 H 0 c 2.209,0 4,-1.791 4,-4 V 4 C 4,1.791 2.209,0 0,0 Z"
                             style="fill:none;stroke:#000000;stroke-width:0.25;stroke-linecap:butt;stroke-linejoin:miter;stroke-miterlimit:10;stroke-dasharray:none;stroke-opacity:1"
                             id="path41585" />
                        </g>
                        <g
                           transform="translate(39.9998,40.0001)"
                           id="g41591">
                          <path
                             d="m 0,0 v -32 c 0,-2.209 -1.791,-4 -4,-4 h -24 c -2.209,0 -4,1.791 -4,4 V 0 c 0,2.209 1.791,4 4,4 H -4 C -1.791,4 0,2.209 0,0 Z"
                             style="fill:none;stroke:#000000;stroke-width:0.25;stroke-linecap:butt;stroke-linejoin:miter;stroke-miterlimit:10;stroke-dasharray:none;stroke-opacity:1"
                             id="path41589" />
                        </g>
                        <path
                           d="M 48,0 H 0 V 48 H 48 Z M 47.75,47.75 H 0.25 V 0.25 h 47.5 z"
                           style="fill:#000000;fill-opacity:1;fill-rule:nonzero;stroke:none"
                           id="path41593" />
                      </g>
                    </g>
                  </g>
                </g>
              </g>
            </g>
          </g>
        </g>
      </g>
    </g>
  </g>
  <g
     inkscape:groupmode="layer"
     id="layer7"
     inkscape:label="sketch" />
  <g
     inkscape:groupmode="layer"
     id="layer8"
     inkscape:label="Image">
    <path
       style="fill:#000000;stroke-width:1.33333333;stroke-dasharray:none"
       d="m 20.844439,29.330255 c -2.61306,-0.292251 -4.928352,-2.25736 -5.648185,-4.785492 -0.247016,0.07166 -0.536591,0.498707 -0.848075,0.651516 -1.630692,1.12535 -4.046608,0.831566 -5.3517488,-0.665426 C 8.801022,24.160153 8.50248,24.047553 8.0940047,24.12427 5.7904965,23.949903 3.6848964,22.319445 2.9777713,20.113762 2.2872629,18.130262 2.7680631,15.803128 4.2029631,14.265578 4.3959465,13.880928 4.3235881,13.367995 4.5160548,12.953254 5.1670715,10.878795 7.28423,9.3534281 9.4701962,9.4777865 c 0.3649584,-0.088116 0.8450998,0.252325 1.1201258,0.035416 1.177323,-1.5407668 3.503891,-2.0167834 5.185882,-1.0476666 0.378351,0.1635166 0.680108,0.6311916 1.032376,0.1670082 1.676549,-1.1570583 4.158309,-0.7617834 5.434283,0.8122502 0.225276,0.4743416 0.829275,0.1743832 1.238925,0.3544832 1.856192,0.3243495 3.451025,1.7855085 3.930017,3.6095345 1.7752,1.331167 2.419958,3.904967 1.512267,5.923483 -0.188434,0.468625 -0.472791,0.894783 -0.793317,1.283092 0.552684,1.5256 0.38515,3.270766 -0.261424,4.7445 -1.060568,2.443075 -3.66721,4.134917 -6.341409,4.003567 -0.229725,0.0084 -0.456925,0.0135 -0.683483,-0.03325 z m 1.652982,-1.31841 c 2.273443,-0.323466 4.224826,-2.193825 4.579626,-4.472517 0.106234,-0.6481 0.113166,-1.330616 -0.03292,-1.968457 -0.535134,0.317266 -1.12485,0.663383 -1.762742,0.65075 -0.632333,-0.153267 -0.631958,-1.129984 -0.005,-1.274842 1.72855,-0.430992 2.975658,-2.224768 2.726708,-3.997809 -0.105947,-1.240533 -0.928031,-2.331267 -1.996322,-2.933142 -0.336057,-0.300975 0.02942,-0.699874 -0.145316,-0.994183 C 25.189739,11.647653 23.604839,10.850103 22.106063,11.023186 21.435479,10.96277 21.342555,10.13257 20.791705,9.8529114 20.202413,9.3491031 19.416346,9.2291365 18.665562,9.2937031 17.945905,9.3507861 17.365654,9.8376281 16.819813,10.24897 16.360062,10.377695 15.873287,10.2523 15.571955,9.8673031 14.888147,9.3071448 13.945462,9.1612115 13.103287,9.3576364 c -0.827074,0.1867584 -1.446624,0.8152996 -1.896841,1.4938586 -0.496966,0.404975 -1.1011,-0.15615 -1.6652915,-0.0565 -1.4978331,-0.141142 -3.0252246,0.7928 -3.616733,2.161059 0.5403334,-0.199542 1.1887335,-0.673568 1.7409835,-0.276934 0.4369497,0.414875 0.089575,1.136675 -0.4794917,1.179208 -1.9510334,0.573975 -3.3705002,2.5871 -3.1872418,4.623501 0.049334,2.164533 1.8856417,4.114524 4.0427249,4.308457 -0.1228001,-0.559141 0.5723167,-1.069258 1.0367579,-0.673783 0.3801997,0.344942 0.3448751,0.966825 0.7283422,1.334409 0.9696995,1.379217 3.1956155,1.49495 4.3136245,0.240151 0.424758,-0.371268 0.593792,-0.934077 0.797367,-1.427718 0.352633,-0.5737 1.411208,-0.298642 1.301217,0.416717 0.0085,2.322683 1.650566,4.520959 3.887916,5.160408 0.775767,0.247793 1.589575,0.266942 2.391176,0.171384 z m -2.416908,-4.3595 c -0.598417,-0.3261 -0.7237,-1.134658 -0.787509,-1.760416 -0.127117,-1.7525 1.376193,-3.429301 3.145843,-3.430343 0.695641,-0.0135 1.500249,0.138367 1.991691,0.655925 0.364651,0.542843 -0.350958,1.266025 -0.896117,0.889968 -1.089175,-0.658901 -2.674758,0.04192 -2.896233,1.300724 -0.163333,0.561726 0.0856,1.12111 0.291609,1.622942 0.09219,0.467668 -0.398959,0.90045 -0.849284,0.7212 z m -5.476368,-3.160783 c -0.520633,-0.345517 -1.04655,-0.823409 -1.730533,-0.724759 -0.591166,-0.08561 -1.194949,0.676776 -1.709116,0.129458 -0.318441,-0.24365 -0.152166,-0.694266 -0.005,-0.944741 -0.07034,-1.016275 -1.133532,-1.79135 -2.1196499,-1.515133 -0.6796827,0.146049 -1.156808,0.732074 -1.325141,1.387008 -0.3076917,0.586792 -1.2881084,0.278667 -1.2106168,-0.374508 0.2963584,-1.59095 2.0483914,-2.706118 3.6162837,-2.284226 1.128299,0.24236 2.056515,1.191092 2.291866,2.319142 1.068117,-0.143583 2.215283,0.217492 2.930975,1.030584 0.326417,0.483866 -0.175858,1.18495 -0.739268,0.977175 z m 6.588294,-3.816892 c -0.533318,-0.162017 -0.641168,-0.870901 -1.186726,-1.051017 -0.552784,-0.328258 -1.247275,-0.274542 -1.821384,-0.05434 -0.494092,0.08075 -0.736774,-0.408175 -0.84585,-0.802683 -0.478283,-1.165233 -2.142733,-1.501241 -3.055066,-0.649592 -0.351258,0.513525 -1.252008,0.263667 -1.2238,-0.367408 0.09623,-0.653158 0.83945,-0.958208 1.375866,-1.2236 1.492084,-0.575633 3.295875,0.141542 4.029751,1.550842 0.532557,0.05184 1.158991,-0.0535 1.690517,0.197141 0.780424,0.283567 1.525192,0.870749 1.82065,1.65415 0.09211,0.440567 -0.343701,0.868017 -0.783958,0.746491 z"
       id="path1" />
    <path
       style="fill:#231f20;stroke:none;stroke-width:4;stroke-linecap:round;stroke-linejoin:round;paint-order:fill markers stroke"
       d="m 25.999999,3 h -2 L 25,14 l 1,1 z"
       id="path2"
       sodipodi:nodetypes="ccccc" />
    <path
       style="fill:#231f20;stroke:none;stroke-width:4;stroke-linecap:round;stroke-linejoin:round;paint-order:fill markers stroke"
       d="M 23,4.0000001 H 20 L 21,13 22,12 23,4.0000001"
       id="path3"
       sodipodi:nodetypes="ccccc" />
    <path
       style="fill:#231f20;stroke:none;stroke-width:4;stroke-linecap:round;stroke-linejoin:round;paint-order:fill markers stroke"
       d="M 18,12 H 17 L 16,4.0000001 h 3 z"
       id="path4"
       sodipodi:nodetypes="ccccc" />
    <path
       style="fill:#231f20;stroke:none;stroke-width:4;stroke-linecap:round;stroke-linejoin:round;paint-order:fill markers stroke"
       d="m 15,3.5 -1,9 -1,1.5 V 3.5 Z"
       id="path5"
       sodipodi:nodetypes="ccccc" />
    <path
       style="fill:#231f20;stroke:none;stroke-width:4;stroke-linecap:round;stroke-linejoin:round;paint-order:fill markers stroke"
       d="M 12,2.0000001 H 27 L 25.999999,4 12,4.0000001 Z"
       id="path6"
       sodipodi:nodetypes="ccccc" />
    <path
       style="fill:none;stroke:#231f20;stroke-width:1.33333;stroke-linecap:round;stroke-linejoin:round;stroke-dasharray:none;paint-order:fill markers stroke"
       d="M 12,3 H 3"
       id="path7"
       sodipodi:nodetypes="cc" />
  </g>
</svg>
