<?xml version="1.0" encoding="UTF-8" standalone="no"?>
<!-- Created with Inkscape (http://www.inkscape.org/) -->

<svg
   version="1.1"
   id="svg41187"
   width="24"
   height="24"
   viewBox="0 0 32 32"
   sodipodi:docname="cbcg.svg"
   inkscape:version="1.3 (0e150ed, 2023-07-21)"
   xmlns:inkscape="http://www.inkscape.org/namespaces/inkscape"
   xmlns:sodipodi="http://sodipodi.sourceforge.net/DTD/sodipodi-0.dtd"
   xmlns="http://www.w3.org/2000/svg"
   xmlns:svg="http://www.w3.org/2000/svg">
  <defs
     id="defs41191">
    <clipPath
       clipPathUnits="userSpaceOnUse"
       id="clipPath41203">
      <path
         d="M 0,24 H 24 V 0 H 0 Z"
         id="path41201" />
    </clipPath>
    <clipPath
       clipPathUnits="userSpaceOnUse"
       id="clipPath41211">
      <path
         d="M 2.00005,22 H 22 V 2.00005 H 2.00005 Z"
         id="path41209" />
    </clipPath>
    <clipPath
       clipPathUnits="userSpaceOnUse"
       id="clipPath41227">
      <path
         d="M 3,21 H 21 V 3 H 3 Z"
         id="path41225" />
    </clipPath>
    <clipPath
       clipPathUnits="userSpaceOnUse"
       id="clipPath41243">
      <path
         d="M 4,22 H 20 V 2 H 4 Z"
         id="path41241" />
    </clipPath>
    <clipPath
       clipPathUnits="userSpaceOnUse"
       id="clipPath41259">
      <path
         d="M 2,20 H 22 V 4 H 2 Z"
         id="path41257" />
    </clipPath>
    <clipPath
       clipPathUnits="userSpaceOnUse"
       id="clipPath41275">
      <path
         d="M 0,24 H 24 V 0 H 0 Z"
         id="path41273" />
    </clipPath>
    <clipPath
       clipPathUnits="userSpaceOnUse"
       id="clipPath41285">
      <path
         d="M 0,48 H 48 V 0 H 0 Z"
         id="path41283" />
    </clipPath>
    <clipPath
       clipPathUnits="userSpaceOnUse"
       id="clipPath41293">
      <path
         d="M 0,24 H 24 V 0 H 0 Z"
         id="path41291" />
    </clipPath>
    <clipPath
       clipPathUnits="userSpaceOnUse"
       id="clipPath41301">
      <path
         d="M -2.13623e-4,24.0002 H 23.9997 V 2.74658e-4 H -2.13623e-4 Z"
         id="path41299" />
    </clipPath>
    <clipPath
       clipPathUnits="userSpaceOnUse"
       id="clipPath41305">
      <path
         d="M -2.13623e-4,47.9998 H 47.9998 V -1.52588e-4 H -2.13623e-4 Z"
         id="path41303" />
    </clipPath>
    <clipPath
       clipPathUnits="userSpaceOnUse"
       id="clipPath41309">
      <path
         d="M 48,48 H 0 V 0 h 48 z"
         id="path41307" />
    </clipPath>
    <clipPath
       clipPathUnits="userSpaceOnUse"
       id="clipPath41517">
      <path
         d="M 0,24 H 24 V 0 H 0 Z"
         id="path41515" />
    </clipPath>
    <clipPath
       clipPathUnits="userSpaceOnUse"
       id="clipPath41527">
      <path
         d="M -2.28882e-4,48.0001 H 47.9998 V 1.2207e-4 H -2.28882e-4 Z"
         id="path41525" />
    </clipPath>
    <clipPath
       clipPathUnits="userSpaceOnUse"
       id="clipPath41535">
      <path
         d="M -2.28882e-4,48.0001 H 47.9998 V 1.2207e-4 H -2.28882e-4 Z"
         id="path41533" />
    </clipPath>
    <clipPath
       clipPathUnits="userSpaceOnUse"
       id="clipPath41539">
      <path
         d="M 0,0 H 48 V 48 H 0 Z"
         id="path41537" />
    </clipPath>
  </defs>
  <sodipodi:namedview
     id="namedview41189"
     pagecolor="#505050"
     bordercolor="#eeeeee"
     borderopacity="1"
     inkscape:showpageshadow="0"
     inkscape:pageopacity="0"
     inkscape:pagecheckerboard="0"
     inkscape:deskcolor="#505050"
     showgrid="true"
     inkscape:zoom="14.786456"
     inkscape:cx="18.902434"
     inkscape:cy="18.023251"
     inkscape:window-width="1512"
     inkscape:window-height="888"
     inkscape:window-x="0"
     inkscape:window-y="38"
     inkscape:window-maximized="0"
     inkscape:current-layer="layer8">
    <inkscape:page
       x="0"
       y="0"
       id="page41193"
       width="32"
       height="32"
       margin="0"
       bleed="0" />
    <inkscape:grid
       type="xygrid"
       id="grid41720"
       originx="0"
       originy="0"
       empspacing="4"
       spacingy="1"
       spacingx="1"
       units="px"
       visible="true" />
  </sodipodi:namedview>
  <g
     id="g41195"
     inkscape:groupmode="layer"
     inkscape:label="ref"
     transform="matrix(1.3333333,0,0,-1.3333333,0,32)"
     style="display:none">
    <g
       id="g41269"
       style="display:inline">
      <g
         id="g41271"
         clip-path="url(#clipPath41275)">
        <g
           id="g41277"
           transform="matrix(0.4999976,0,0,-0.4999976,-1.144e-4,24.00008)">
          <g
             id="g41279">
            <g
               id="g41281"
               clip-path="url(#clipPath41285)" />
          </g>
        </g>
      </g>
    </g>
    <g
       id="g41511"
       style="display:inline">
      <g
         id="g41513"
         clip-path="url(#clipPath41517)">
        <g
           id="g41519"
           transform="matrix(0.4999976,0,0,-0.4999976,-1.144e-4,24.00008)">
          <g
             id="g41521">
            <g
               id="g41523"
               clip-path="url(#clipPath41527)">
              <g
                 id="g41529">
                <g
                   id="g41531" />
                <g
                   id="g41601">
                  <g
                     clip-path="url(#clipPath41535)"
                     opacity="0.399994"
                     id="g41599">
                    <g
                       id="g41597">
                      <g
                         clip-path="url(#clipPath41539)"
                         id="g41595">
                        <g
                           transform="translate(23.9998,1e-4)"
                           id="g41543">
                          <path
                             d="M 0,0 V 48"
                             style="fill:none;stroke:#000000;stroke-width:0.25;stroke-linecap:butt;stroke-linejoin:miter;stroke-miterlimit:10;stroke-dasharray:none;stroke-opacity:1"
                             id="path41541" />
                        </g>
                        <g
                           transform="translate(47.9998,24.0001)"
                           id="g41547">
                          <path
                             d="M 0,0 H -48"
                             style="fill:none;stroke:#000000;stroke-width:0.25;stroke-linecap:butt;stroke-linejoin:miter;stroke-miterlimit:10;stroke-dasharray:none;stroke-opacity:1"
                             id="path41545" />
                        </g>
                        <g
                           transform="translate(47.9998,16.0001)"
                           id="g41551">
                          <path
                             d="M 0,0 H -48"
                             style="fill:none;stroke:#000000;stroke-width:0.25;stroke-linecap:butt;stroke-linejoin:miter;stroke-miterlimit:10;stroke-dasharray:none;stroke-opacity:1"
                             id="path41549" />
                        </g>
                        <g
                           transform="translate(47.9998,32.0001)"
                           id="g41555">
                          <path
                             d="M 0,0 H -48"
                             style="fill:none;stroke:#000000;stroke-width:0.25;stroke-linecap:butt;stroke-linejoin:miter;stroke-miterlimit:10;stroke-dasharray:none;stroke-opacity:1"
                             id="path41553" />
                        </g>
                        <g
                           transform="translate(31.9998,48.0001)"
                           id="g41559">
                          <path
                             d="M 0,0 V -48"
                             style="fill:none;stroke:#000000;stroke-width:0.25;stroke-linecap:butt;stroke-linejoin:miter;stroke-miterlimit:10;stroke-dasharray:none;stroke-opacity:1"
                             id="path41557" />
                        </g>
                        <g
                           transform="translate(15.9998,48.0001)"
                           id="g41563">
                          <path
                             d="M 0,0 V -48"
                             style="fill:none;stroke:#000000;stroke-width:0.25;stroke-linecap:butt;stroke-linejoin:miter;stroke-miterlimit:10;stroke-dasharray:none;stroke-opacity:1"
                             id="path41561" />
                        </g>
                        <g
                           transform="translate(47.7498,0.2501)"
                           id="g41567">
                          <path
                             d="M 0,0 -47.5,47.5"
                             style="fill:none;stroke:#000000;stroke-width:0.25;stroke-linecap:butt;stroke-linejoin:miter;stroke-miterlimit:10;stroke-dasharray:none;stroke-opacity:1"
                             id="path41565" />
                        </g>
                        <g
                           transform="translate(0.2498,0.2501)"
                           id="g41571">
                          <path
                             d="M 0,0 47.5,47.5"
                             style="fill:none;stroke:#000000;stroke-width:0.25;stroke-linecap:butt;stroke-linejoin:miter;stroke-miterlimit:10;stroke-dasharray:none;stroke-opacity:1"
                             id="path41569" />
                        </g>
                        <g
                           transform="translate(24.0005,13.9999)"
                           id="g41575">
                          <path
                             d="m 0,0 c -5.523,0 -10,4.477 -10,10 0,5.522 4.477,10 10,10 C 5.522,20 10,15.522 10,10 10,4.477 5.522,0 0,0 Z"
                             style="fill:none;stroke:#000000;stroke-width:0.25;stroke-linecap:butt;stroke-linejoin:miter;stroke-miterlimit:10;stroke-dasharray:none;stroke-opacity:1"
                             id="path41573" />
                        </g>
                        <g
                           transform="translate(23.9998,4.0001)"
                           id="g41579">
                          <path
                             d="m 0,0 c -11.054,0 -20,8.947 -20,20 0,11.053 8.946,20 20,20 C 11.053,40 20,31.053 20,20 20,8.947 11.053,0 0,0 Z"
                             style="fill:none;stroke:#000000;stroke-width:0.25;stroke-linecap:butt;stroke-linejoin:miter;stroke-miterlimit:10;stroke-dasharray:none;stroke-opacity:1"
                             id="path41577" />
                        </g>
                        <g
                           transform="translate(37.9998,6.0001)"
                           id="g41583">
                          <path
                             d="m 0,0 h -28 c -2.211,0 -4,1.791 -4,4 v 28 c 0,2.209 1.789,4 4,4 H 0 c 2.211,0 4,-1.791 4,-4 V 4 C 4,1.791 2.211,0 0,0 Z"
                             style="fill:none;stroke:#000000;stroke-width:0.25;stroke-linecap:butt;stroke-linejoin:miter;stroke-miterlimit:10;stroke-dasharray:none;stroke-opacity:1"
                             id="path41581" />
                        </g>
                        <g
                           transform="translate(39.9998,8.0001)"
                           id="g41587">
                          <path
                             d="m 0,0 h -32 c -2.209,0 -4,1.791 -4,4 v 24 c 0,2.209 1.791,4 4,4 H 0 c 2.209,0 4,-1.791 4,-4 V 4 C 4,1.791 2.209,0 0,0 Z"
                             style="fill:none;stroke:#000000;stroke-width:0.25;stroke-linecap:butt;stroke-linejoin:miter;stroke-miterlimit:10;stroke-dasharray:none;stroke-opacity:1"
                             id="path41585" />
                        </g>
                        <g
                           transform="translate(39.9998,40.0001)"
                           id="g41591">
                          <path
                             d="m 0,0 v -32 c 0,-2.209 -1.791,-4 -4,-4 h -24 c -2.209,0 -4,1.791 -4,4 V 0 c 0,2.209 1.791,4 4,4 H -4 C -1.791,4 0,2.209 0,0 Z"
                             style="fill:none;stroke:#000000;stroke-width:0.25;stroke-linecap:butt;stroke-linejoin:miter;stroke-miterlimit:10;stroke-dasharray:none;stroke-opacity:1"
                             id="path41589" />
                        </g>
                        <path
                           d="M 48,0 H 0 V 48 H 48 Z M 47.75,47.75 H 0.25 V 0.25 h 47.5 z"
                           style="fill:#000000;fill-opacity:1;fill-rule:nonzero;stroke:none"
                           id="path41593" />
                      </g>
                    </g>
                  </g>
                </g>
              </g>
            </g>
          </g>
        </g>
      </g>
    </g>
  </g>
  <g
     inkscape:groupmode="layer"
     id="layer7"
     inkscape:label="sketch" />
  <g
     inkscape:groupmode="layer"
     id="layer8"
     inkscape:label="Image">
    <path
       id="path6151"
       d="m 15.59859,2.1253596 c -0.06905,0.068946 -0.16604,0.2031419 -0.215537,0.2982126 -0.05173,0.099361 -0.163457,0.2322266 -0.262776,0.3124926 -0.198994,0.160822 -0.216416,0.1905787 -0.244273,0.4172267 l -0.02055,0.167144 h -0.203397 c -0.185647,0 -0.212283,0.00953 -0.305185,0.1091705 -0.126853,0.1360555 -0.127263,0.2068213 -0.0026,0.4592655 0.05449,0.1103966 0.117723,0.2548762 0.140515,0.3210663 0.02279,0.06619 0.09348,0.1789449 0.157079,0.2505669 0.250901,0.28254 0.237199,0.3818259 -0.08085,0.5858967 -0.219025,0.1405303 -0.259847,0.2187073 -0.229967,0.4404031 0.01602,0.1188771 0.0022,0.215806 -0.05311,0.3727841 -0.06564,0.1862657 -0.06902,0.2233819 -0.02762,0.3043479 0.06791,0.1328263 0.204863,0.2177101 0.381508,0.2364617 0.257337,0.027316 0.296292,0.040757 0.396718,0.1368721 0.228033,0.2182482 0.189446,0.3757542 -0.186511,0.7613031 -0.364581,0.3738837 -0.480448,0.5704781 -0.532048,0.9027394 -0.04224,0.2719996 -0.101348,0.3847238 -0.201038,0.3834085 -0.03059,-4.046e-4 -0.126259,-0.032138 -0.212583,-0.070519 -0.09342,-0.041518 -0.27708,-0.080117 -0.453458,-0.095292 C 13.279852,8.4048813 13.005186,8.3607723 12.832538,8.3208913 12.659891,8.2810093 12.421887,8.2264423 12.303641,8.199631 12.047262,8.1415 11.752504,8.137007 11.541169,8.18801 11.402451,8.221488 11.355599,8.21469 11.064484,8.118839 10.83708,8.0439764 10.708082,8.0185676 10.628254,8.0329213 10.459266,8.0633066 10.070045,8.2432409 9.8329796,8.4005725 9.7178816,8.476959 9.5529316,8.5784071 9.4664253,8.6260123 9.379918,8.6736175 9.257305,8.7817462 9.1939515,8.866298 9.0788135,9.0199886 9.0349332,9.0427335 8.9514972,8.9919817 8.8971437,8.9589201 8.8395144,8.6394205 8.8389782,8.3681688 8.8383505,8.0511864 8.7917379,7.9434458 8.5803312,7.7703413 8.4244316,7.6426872 8.3855601,7.5882504 8.3506161,7.4486409 8.2994546,7.2442394 8.3472642,7.1517272 8.5570814,7.0491355 8.8566022,6.9026817 9.0156434,6.5963856 8.9482591,6.2957713 8.880406,5.9930667 8.8290705,5.5523715 8.851628,5.4662304 8.8638116,5.4197054 8.9737156,5.2772671 9.0958594,5.1497004 9.4276373,4.8031932 9.4487147,4.6523175 9.2706576,3.8984379 9.2305159,3.728481 9.175845,3.619829 9.0449603,3.4498919 8.8537363,3.2016115 8.8490909,3.1886501 8.828223,2.8451362 8.809415,2.5355522 8.7459622,2.4345748 8.5702315,2.4345748 c -0.1197079,0 -0.1723404,0.043134 -0.8493185,0.6959967 C 7.3239765,3.5133697 6.9584546,3.8884467 6.908642,3.9640758 6.7750231,4.1669452 6.6898687,4.2300161 6.4434886,4.3085986 6.2443219,4.3721222 6.1588877,4.3782559 5.6149888,4.3680759 5.0169642,4.3568822 5.007328,4.3578268 4.9200743,4.4361377 4.8714097,4.479814 4.821176,4.5625507 4.8084437,4.6199956 4.7612083,4.8331126 4.5767408,5.328089 4.5234707,5.3846577 c -0.036552,0.038814 -0.1066197,0.0585 -0.208221,0.0585 -0.117964,0 -0.1737255,0.019738 -0.2428035,0.085945 -0.1132562,0.1085494 -0.097813,0.2339046 0.075308,0.6112896 0.066843,0.1457096 0.1442849,0.3681025 0.172094,0.4942059 0.082505,0.3741313 0.3282231,1.2087818 0.4562286,1.5497127 0.031064,0.082736 0.085432,0.3383903 0.1208185,0.5681207 0.061588,0.3998377 0.074981,0.4378856 0.3133169,0.8901204 0.2288639,0.434262 0.2515284,0.496114 0.2805376,0.765599 0.024354,0.22624 0.059219,0.347374 0.1527185,0.530599 0.085319,0.167195 0.1275887,0.304168 0.1428929,0.463041 0.011954,0.124085 0.044482,0.277791 0.072285,0.34157 0.027804,0.06378 0.050552,0.202945 0.050552,0.30926 0,0.106317 0.0238,0.298597 0.052888,0.427291 0.079894,0.353463 0.1002903,0.738047 0.054073,1.019562 -0.033605,0.204692 -0.031006,0.345832 0.014158,0.76886 0.078317,0.733569 0.1078765,0.865748 0.2633304,1.177521 0.096062,0.19266 0.1493747,0.356465 0.1756337,0.539647 0.020737,0.14466 0.052628,0.30064 0.070867,0.346622 0.01824,0.04598 0.048411,0.186645 0.067048,0.312587 0.018636,0.125941 0.087136,0.353556 0.1522232,0.50581 0.065086,0.152254 0.1613334,0.418539 0.2138819,0.591744 0.052549,0.173206 0.1538181,0.436457 0.2250436,0.585002 0.071225,0.148546 0.163907,0.369263 0.205959,0.490483 0.1524613,0.439488 0.7550338,1.334123 1.2125271,1.800231 0.300283,0.305936 0.7026072,0.60847 1.0500335,0.789585 0.129738,0.06764 0.3841134,0.207301 0.5652774,0.310372 0.297476,0.169246 0.352329,0.188644 0.566177,0.200225 0.148811,0.0081 0.327049,-0.0084 0.479718,-0.04424 0.212642,-0.04994 0.283376,-0.05196 0.567364,-0.01623 0.17844,0.02246 0.446202,0.06793 0.595028,0.101049 0.172944,0.03849 0.305102,0.05071 0.366222,0.03386 0.298659,-0.08232 0.94931,-0.4616 1.700025,-0.990986 0.593512,-0.418529 1.364067,-1.319925 1.485115,-1.737285 0.03224,-0.111188 0.09815,-0.276911 0.14646,-0.368276 0.04831,-0.09136 0.105684,-0.229679 0.127511,-0.307366 0.08446,-0.300643 0.35509,-0.885866 0.560001,-1.210993 0.117916,-0.187096 0.250852,-0.440503 0.295412,-0.563125 0.04456,-0.122622 0.140803,-0.365858 0.21387,-0.540523 0.128419,-0.306982 0.133125,-0.332621 0.141105,-0.76886 0.0045,-0.248208 0.03178,-0.554563 0.06054,-0.680789 0.04861,-0.213417 0.04768,-0.243648 -0.01327,-0.431352 -0.05504,-0.16948 -0.0623,-0.2667 -0.04529,-0.606216 0.01114,-0.222401 0.04017,-0.441972 0.06451,-0.487937 0.02434,-0.04596 0.212483,-0.249043 0.418108,-0.451287 0.423579,-0.416614 0.513367,-0.567162 0.574409,-0.963105 0.04455,-0.289011 0.03014,-0.415676 -0.09173,-0.806151 -0.06276,-0.201106 -0.0827,-0.344523 -0.0827,-0.595088 0,-0.311935 0.0067,-0.342582 0.122074,-0.5562123 0.08785,-0.162717 0.122074,-0.2693753 0.122074,-0.380525 0,-0.2446469 0.04082,-0.3069089 0.25606,-0.3906407 0.20754,-0.080734 0.584694,-0.4205749 0.650302,-0.585965 0.05626,-0.1418423 0.04121,-0.4502562 -0.03481,-0.713203 -0.03894,-0.1346892 -0.06047,-0.2796755 -0.04839,-0.3258341 0.01198,-0.04574 0.09115,-0.1571203 0.175948,-0.2475119 0.195996,-0.2089351 0.396018,-0.526024 0.396018,-0.6277966 0,-0.095975 -0.10502,-0.2988603 -0.226071,-0.4367426 -0.05298,-0.06035 -0.161339,-0.125136 -0.263902,-0.157786 C 19.41432,6.0305788 19.312392,5.9731058 19.283514,5.9333293 18.937082,5.4561775 18.918245,5.3994386 19.020578,5.1413848 19.150423,4.8139527 19.097678,4.5933908 18.775983,4.118588 18.675058,3.969629 18.62779,3.855827 18.602427,3.7007292 18.583255,3.5834978 18.5508,3.4375277 18.5303,3.3763511 18.491009,3.2590935 18.324819,3.1369228 18.204297,3.1367048 18.163579,3.1366381 18.040325,3.0392395 17.904944,2.9001628 17.687055,2.6763235 17.657216,2.6579488 17.344127,2.5548055 17.162253,2.4948918 16.900675,2.3759468 16.762845,2.2904908 16.339719,2.0281476 16.263877,2.0000042 15.980024,2.0000042 c -0.250134,0 -0.258727,0.0028 -0.381442,0.125358 z m -3.532984,7.4928416 c 0.134503,0.015114 0.31226,0.060588 0.395017,0.1010526 0.09548,0.046686 0.228509,0.076861 0.36402,0.082574 0.210852,0.0089 0.215798,0.01137 0.390998,0.196142 0.09759,0.1029282 0.212182,0.2538042 0.254637,0.3352812 0.06927,0.132943 0.07495,0.180348 0.05532,0.462105 -0.01511,0.216821 -0.04298,0.350898 -0.09007,0.433325 -0.08315,0.145531 -0.359934,0.324899 -0.599759,0.388665 -0.0977,0.02597 -0.326733,0.09072 -0.508971,0.143875 -0.4138,0.120697 -1.059306,0.192622 -1.22672,0.136687 -0.206622,-0.06903 -0.382387,-0.213303 -0.552087,-0.453156 -0.0915,-0.129329 -0.209537,-0.272751 -0.262297,-0.318715 -0.3872074,-0.337332 -0.3907344,-0.575618 -0.01554,-1.049888 0.16638,-0.2103172 0.23018,-0.2485812 0.538692,-0.3230879 0.134689,-0.032528 0.315519,-0.091076 0.401843,-0.1301064 0.165069,-0.074635 0.229839,-0.074995 0.854919,-0.00475 z M 9.3272642,10.323748 c 0.038366,0.03677 0.069756,0.07871 0.069756,0.0932 0,0.178395 0.1169907,0.843221 0.1677284,0.953156 0.07174,0.155443 0.234406,0.293567 0.5169984,0.439004 0.09845,0.05066 0.211619,0.134414 0.251496,0.18611 0.114297,0.14817 0.697478,0.564238 0.84379,0.601998 0.10562,0.02725 0.166722,0.02222 0.301072,-0.02485 0.127536,-0.04467 0.274668,-0.05905 0.604538,-0.05905 h 0.435978 l 0.627807,-0.300858 c 0.62162,-0.297893 0.628935,-0.302671 0.74213,-0.484717 0.150375,-0.241841 0.187225,-0.380181 0.214706,-0.806054 0.02429,-0.37648 0.06534,-0.481517 0.228091,-0.583725 0.184674,-0.115974 0.434959,0.05346 0.593987,0.402107 0.202008,0.442875 0.258682,0.581075 0.295364,0.720242 0.02181,0.08274 0.07779,0.263252 0.124408,0.401145 0.04662,0.137894 0.115873,0.453794 0.153904,0.702003 0.03804,0.248208 0.09166,0.526502 0.119183,0.618431 0.06131,0.204789 0.101419,1.15329 0.04877,1.15329 -0.01966,0 -0.0947,-0.05105 -0.16676,-0.113449 -0.09679,-0.08381 -0.193572,-0.127027 -0.370447,-0.165421 -0.401902,-0.08725 -1.004866,-0.132409 -1.508673,-0.113015 -0.649946,0.02502 -0.73751,0.05831 -1.060817,0.403242 -0.335118,0.357539 -0.384125,0.428849 -0.52328,0.761414 -0.205448,0.491005 -0.371983,0.483773 -0.59319,-0.02575 -0.166062,-0.382514 -0.640503,-1.00128 -0.839067,-1.094313 -0.332219,-0.155654 -1.4548671,-0.121459 -2.1848377,0.06655 -0.353001,0.09092 -0.4980863,0.08944 -0.5360785,-0.0055 -0.01162,-0.02902 0.010192,-0.167372 0.04847,-0.307443 0.038279,-0.14007 0.069597,-0.303509 0.069597,-0.363197 0,-0.05969 0.022271,-0.248652 0.049492,-0.41992 0.027222,-0.171268 0.066598,-0.459403 0.087504,-0.640302 0.078715,-0.681135 0.4815551,-1.611073 0.8386083,-1.935888 0.1549192,-0.140933 0.2475913,-0.156432 0.3497694,-0.0585 z m 0.6103684,4.008814 c 0.5641044,0.03064 0.7562054,0.08674 0.8420894,0.245919 0.08001,0.148287 0.137524,0.796294 0.08546,0.962841 -0.05265,0.168417 -0.143603,0.223079 -0.532143,0.319801 -0.243384,0.06059 -0.4544034,0.08374 -0.9153769,0.100401 -0.710525,0.02569 -0.860548,-0.006 -1.1275865,-0.238081 L 8.123965,15.579069 8.128535,15.266346 c 0.00828,-0.565956 0.1951695,-0.853874 0.605792,-0.933287 0.1661629,-0.03214 0.6173821,-0.03232 1.2032976,-4.97e-4 z m 4.4450904,0.102453 c 0.340782,0.03754 0.611138,0.148776 0.727136,0.299152 0.09369,0.121458 0.177691,0.410567 0.205093,0.70589 0.037,0.398727 -0.09538,0.516064 -0.623193,0.552412 -0.458031,0.03155 -1.39942,-0.03428 -1.672855,-0.116963 -0.280138,-0.08471 -0.447966,-0.240707 -0.447966,-0.416383 0,-0.238845 0.24404,-0.725281 0.458554,-0.914018 0.0464,-0.04083 0.14663,-0.08821 0.222726,-0.105286 0.187246,-0.04203 0.770195,-0.04451 1.130505,-0.0048 z m -1.857955,1.867009 c 0.520774,0.229117 1.161656,0.324329 1.932052,0.287031 0.539362,-0.02611 0.625349,-0.0052 0.625349,0.152003 0,0.05332 -0.01592,0.137074 -0.03539,0.186135 -0.01946,0.04906 -0.05822,0.234856 -0.08611,0.41288 -0.06059,0.386601 -0.104822,0.513697 -0.31374,0.901391 -0.228758,0.424509 -0.693727,1.063269 -0.864175,1.187176 -0.309809,0.225214 -1.084697,0.528784 -1.633702,0.640019 -0.126528,0.02564 -0.311528,0.07739 -0.411111,0.11501 -0.235192,0.08886 -0.332411,0.08625 -0.510313,-0.01368 -0.08036,-0.04515 -0.270089,-0.113824 -0.421597,-0.152623 -0.31933,-0.08178 -0.642519,-0.184127 -1.0602284,-0.335762 C 9.3622427,19.542364 9.1960924,19.383891 8.9695787,18.941248 8.8783582,18.762989 8.7292539,18.522334 8.6382357,18.406462 8.4353906,18.148224 8.1896286,17.656982 8.1419333,17.414427 c -0.019474,-0.09904 -0.035406,-0.343482 -0.035406,-0.543218 0,-0.325304 0.0077,-0.37053 0.073859,-0.433941 0.066756,-0.06398 0.09778,-0.06856 0.3226234,-0.04765 0.1368206,0.01274 0.3272407,0.03915 0.4231557,0.05868 0.4094387,0.08344 1.5165656,-0.0371 2.0593766,-0.224213 0.225001,-0.07755 0.278426,-0.08267 0.737027,-0.07054 0.491651,0.013 0.496179,0.01384 0.802199,0.148472 z"
       style="display:inline;fill:#000000;fill-opacity:1;stroke-width:0.0341457"
       transform="matrix(1.3333333,0,0,-1.3333333,0,32)" />
  </g>
</svg>
