<?xml version="1.0" encoding="UTF-8" standalone="no"?>
<svg
   width="24"
   height="24"
   viewBox="0 0 24 24"
   version="1.1"
   id="svg1"
   sodipodi:docname="cracked.svg"
   inkscape:version="1.3 (0e150ed, 2023-07-21)"
   xmlns:inkscape="http://www.inkscape.org/namespaces/inkscape"
   xmlns:sodipodi="http://sodipodi.sourceforge.net/DTD/sodipodi-0.dtd"
   xmlns="http://www.w3.org/2000/svg"
   xmlns:svg="http://www.w3.org/2000/svg">
  <defs
     id="defs1" />
  <sodipodi:namedview
     id="namedview1"
     pagecolor="#505050"
     bordercolor="#eeeeee"
     borderopacity="1"
     inkscape:showpageshadow="0"
     inkscape:pageopacity="0"
     inkscape:pagecheckerboard="0"
     inkscape:deskcolor="#505050"
     showgrid="true"
     inkscape:zoom="16.333128"
     inkscape:cx="13.102206"
     inkscape:cy="13.438945"
     inkscape:window-width="1512"
     inkscape:window-height="888"
     inkscape:window-x="0"
     inkscape:window-y="38"
     inkscape:window-maximized="0"
     inkscape:current-layer="svg1">
    <inkscape:grid
       id="grid1"
       units="px"
       originx="0"
       originy="0"
       spacingx="1"
       spacingy="1"
       empcolor="#0099e5"
       empopacity="0.30196078"
       color="#0099e5"
       opacity="0.14901961"
       empspacing="5"
       dotted="false"
       gridanglex="30"
       gridanglez="30"
       visible="true" />
  </sodipodi:namedview>
  <path
     id="path1"
     d="M 12 2 A 7 7 0 0 0 5 9 C 5 11.379998 6.1900018 13.470236 8 14.740234 L 8 17 A 1 1 0 0 0 9 18 L 15 18 A 1 1 0 0 0 16 17 L 16 14.740234 C 17.809998 13.470236 19 11.379998 19 9 A 7 7 0 0 0 17.822266 5.1191406 L 15 7 L 15 9 L 14 10 L 16 14 L 13 11 L 10 11 L 8 13 L 9 10 L 8 9 L 11 10 L 13 10 L 14 8 L 14 3 L 15 5 L 16.931641 4.0351562 A 7 7 0 0 0 12 2 z M 9 20 L 9 21 A 1 1 0 0 0 10 22 L 14 22 A 1 1 0 0 0 15 21 L 15 20 L 9 20 z " />
</svg>
