<?xml version="1.0" encoding="UTF-8" standalone="no"?>
<!-- Created with Inkscape (http://www.inkscape.org/) -->

<svg
   version="1.1"
   id="svg41187"
   width="24"
   height="24"
   viewBox="0 0 24 24"
   sodipodi:docname="in-place.svg.svg"
   inkscape:version="1.3 (0e150ed, 2023-07-21)"
   xmlns:inkscape="http://www.inkscape.org/namespaces/inkscape"
   xmlns:sodipodi="http://sodipodi.sourceforge.net/DTD/sodipodi-0.dtd"
   xmlns="http://www.w3.org/2000/svg"
   xmlns:svg="http://www.w3.org/2000/svg">
  <defs
     id="defs41191">
    <inkscape:path-effect
       effect="fillet_chamfer"
       id="path-effect39"
       is_visible="true"
       lpeversion="1"
       nodesatellites_param="F,0,0,1,0,0,0,1 @ F,0,0,1,0,0,0,1 @ F,0,0,1,0,0,0,1 @ F,0,0,1,0,0,0,1 @ F,0,0,1,0,1,0,1 @ F,0,0,1,0,0,0,1 @ F,0,0,1,0,1,0,1 @ F,0,0,1,0,0,0,1 @ F,0,0,1,0,0,0,1 @ F,0,0,1,0,0,0,1"
       radius="0"
       unit="px"
       method="auto"
       mode="F"
       chamfer_steps="1"
       flexible="false"
       use_knot_distance="true"
       apply_no_radius="true"
       apply_with_radius="true"
       only_selected="false"
       hide_knots="false" />
    <inkscape:perspective
       sodipodi:type="inkscape:persp3d"
       inkscape:vp_x="-12.649111 : -1.5490693e-15 : 0"
       inkscape:vp_y="0 : 1000 : 0"
       inkscape:vp_z="8.9442716 : 8.9442716 : 0"
       inkscape:persp3d-origin="7.8514761 : 17.295439 : 1"
       id="perspective31" />
    <inkscape:path-effect
       effect="bspline"
       id="path-effect25"
       is_visible="true"
       lpeversion="1.3"
       weight="33.333333"
       steps="2"
       helper_size="0"
       apply_no_weight="true"
       apply_with_weight="true"
       only_selected="false"
       uniform="false" />
    <linearGradient
       id="swatch23"
       inkscape:swatch="solid">
      <stop
         style="stop-color:#8c8c8c;stop-opacity:1;"
         offset="0"
         id="stop23" />
    </linearGradient>
    <inkscape:perspective
       sodipodi:type="inkscape:persp3d"
       inkscape:vp_x="-10.212326 : -1.2506493e-15 : 0"
       inkscape:vp_y="0 : 1000 : 0"
       inkscape:vp_z="12.148897 : 12.148897 : 0"
       inkscape:persp3d-origin="9.9469794 : 6.331754 : 1"
       id="perspective1" />
    <clipPath
       clipPathUnits="userSpaceOnUse"
       id="clipPath41203">
      <path
         d="M 0,24 H 24 V 0 H 0 Z"
         id="path41201" />
    </clipPath>
    <clipPath
       clipPathUnits="userSpaceOnUse"
       id="clipPath41211">
      <path
         d="M 2.00005,22 H 22 V 2.00005 H 2.00005 Z"
         id="path41209" />
    </clipPath>
    <clipPath
       clipPathUnits="userSpaceOnUse"
       id="clipPath41227">
      <path
         d="M 3,21 H 21 V 3 H 3 Z"
         id="path41225" />
    </clipPath>
    <clipPath
       clipPathUnits="userSpaceOnUse"
       id="clipPath41243">
      <path
         d="M 4,22 H 20 V 2 H 4 Z"
         id="path41241" />
    </clipPath>
    <clipPath
       clipPathUnits="userSpaceOnUse"
       id="clipPath41259">
      <path
         d="M 2,20 H 22 V 4 H 2 Z"
         id="path41257" />
    </clipPath>
    <clipPath
       clipPathUnits="userSpaceOnUse"
       id="clipPath41275">
      <path
         d="M 0,24 H 24 V 0 H 0 Z"
         id="path41273" />
    </clipPath>
    <clipPath
       clipPathUnits="userSpaceOnUse"
       id="clipPath41285">
      <path
         d="M 0,48 H 48 V 0 H 0 Z"
         id="path41283" />
    </clipPath>
    <clipPath
       clipPathUnits="userSpaceOnUse"
       id="clipPath41293">
      <path
         d="M 0,24 H 24 V 0 H 0 Z"
         id="path41291" />
    </clipPath>
    <clipPath
       clipPathUnits="userSpaceOnUse"
       id="clipPath41301">
      <path
         d="M -2.13623e-4,24.0002 H 23.9997 V 2.74658e-4 H -2.13623e-4 Z"
         id="path41299" />
    </clipPath>
    <clipPath
       clipPathUnits="userSpaceOnUse"
       id="clipPath41305">
      <path
         d="M -2.13623e-4,47.9998 H 47.9998 V -1.52588e-4 H -2.13623e-4 Z"
         id="path41303" />
    </clipPath>
    <clipPath
       clipPathUnits="userSpaceOnUse"
       id="clipPath41309">
      <path
         d="M 48,48 H 0 V 0 h 48 z"
         id="path41307" />
    </clipPath>
    <clipPath
       clipPathUnits="userSpaceOnUse"
       id="clipPath41517">
      <path
         d="M 0,24 H 24 V 0 H 0 Z"
         id="path41515" />
    </clipPath>
    <clipPath
       clipPathUnits="userSpaceOnUse"
       id="clipPath41527">
      <path
         d="M -2.28882e-4,48.0001 H 47.9998 V 1.2207e-4 H -2.28882e-4 Z"
         id="path41525" />
    </clipPath>
    <clipPath
       clipPathUnits="userSpaceOnUse"
       id="clipPath41535">
      <path
         d="M -2.28882e-4,48.0001 H 47.9998 V 1.2207e-4 H -2.28882e-4 Z"
         id="path41533" />
    </clipPath>
    <clipPath
       clipPathUnits="userSpaceOnUse"
       id="clipPath41539">
      <path
         d="M 0,0 H 48 V 48 H 0 Z"
         id="path41537" />
    </clipPath>
  </defs>
  <sodipodi:namedview
     id="namedview41189"
     pagecolor="#505050"
     bordercolor="#eeeeee"
     borderopacity="1"
     inkscape:showpageshadow="0"
     inkscape:pageopacity="0"
     inkscape:pagecheckerboard="0"
     inkscape:deskcolor="#505050"
     showgrid="false"
     inkscape:zoom="2.6040952"
     inkscape:cx="17.85649"
     inkscape:cy="24.000658"
     inkscape:window-width="1512"
     inkscape:window-height="888"
     inkscape:window-x="0"
     inkscape:window-y="38"
     inkscape:window-maximized="0"
     inkscape:current-layer="layer8">
    <inkscape:page
       x="0"
       y="0"
       id="page41193"
       width="24"
       height="24"
       margin="0"
       bleed="0" />
    <inkscape:grid
       type="xygrid"
       id="grid41720"
       originx="0"
       originy="0"
       empspacing="4"
       spacingy="1"
       spacingx="1"
       units="px"
       visible="false" />
  </sodipodi:namedview>
  <g
     id="g41195"
     inkscape:groupmode="layer"
     inkscape:label="ref"
     transform="matrix(1.3333333,0,0,-1.3333333,0,32)"
     style="display:none">
    <g
       id="g41269"
       style="display:inline"
       transform="matrix(0.75001255,0,0,0.75000536,-5.3597189e-5,5.9998912)">
      <g
         id="g41271"
         clip-path="url(#clipPath41275)">
        <g
           id="g41277"
           transform="matrix(0.4999976,0,0,-0.4999976,-1.144e-4,24.00008)">
          <g
             id="g41279">
            <g
               id="g41281"
               clip-path="url(#clipPath41285)" />
          </g>
        </g>
      </g>
    </g>
    <g
       id="g41511"
       style="display:inline"
       transform="matrix(0.75001255,0,0,0.75000536,-5.3597189e-5,5.9998912)">
      <g
         id="g41513"
         clip-path="url(#clipPath41517)">
        <g
           id="g41519"
           transform="matrix(0.4999976,0,0,-0.4999976,-1.144e-4,24.00008)">
          <g
             id="g41521">
            <g
               id="g41523"
               clip-path="url(#clipPath41527)">
              <g
                 id="g41529">
                <g
                   id="g41531" />
                <g
                   id="g41601">
                  <g
                     clip-path="url(#clipPath41535)"
                     opacity="0.399994"
                     id="g41599">
                    <g
                       id="g41597">
                      <g
                         clip-path="url(#clipPath41539)"
                         id="g41595">
                        <g
                           transform="translate(23.9998,1e-4)"
                           id="g41543">
                          <path
                             d="M 0,0 V 48"
                             style="fill:none;stroke:#000000;stroke-width:0.25;stroke-linecap:butt;stroke-linejoin:miter;stroke-miterlimit:10;stroke-dasharray:none;stroke-opacity:1"
                             id="path41541" />
                        </g>
                        <g
                           transform="translate(47.9998,24.0001)"
                           id="g41547">
                          <path
                             d="M 0,0 H -48"
                             style="fill:none;stroke:#000000;stroke-width:0.25;stroke-linecap:butt;stroke-linejoin:miter;stroke-miterlimit:10;stroke-dasharray:none;stroke-opacity:1"
                             id="path41545" />
                        </g>
                        <g
                           transform="translate(47.9998,16.0001)"
                           id="g41551">
                          <path
                             d="M 0,0 H -48"
                             style="fill:none;stroke:#000000;stroke-width:0.25;stroke-linecap:butt;stroke-linejoin:miter;stroke-miterlimit:10;stroke-dasharray:none;stroke-opacity:1"
                             id="path41549" />
                        </g>
                        <g
                           transform="translate(47.9998,32.0001)"
                           id="g41555">
                          <path
                             d="M 0,0 H -48"
                             style="fill:none;stroke:#000000;stroke-width:0.25;stroke-linecap:butt;stroke-linejoin:miter;stroke-miterlimit:10;stroke-dasharray:none;stroke-opacity:1"
                             id="path41553" />
                        </g>
                        <g
                           transform="translate(31.9998,48.0001)"
                           id="g41559">
                          <path
                             d="M 0,0 V -48"
                             style="fill:none;stroke:#000000;stroke-width:0.25;stroke-linecap:butt;stroke-linejoin:miter;stroke-miterlimit:10;stroke-dasharray:none;stroke-opacity:1"
                             id="path41557" />
                        </g>
                        <g
                           transform="translate(15.9998,48.0001)"
                           id="g41563">
                          <path
                             d="M 0,0 V -48"
                             style="fill:none;stroke:#000000;stroke-width:0.25;stroke-linecap:butt;stroke-linejoin:miter;stroke-miterlimit:10;stroke-dasharray:none;stroke-opacity:1"
                             id="path41561" />
                        </g>
                        <g
                           transform="translate(47.7498,0.2501)"
                           id="g41567">
                          <path
                             d="M 0,0 -47.5,47.5"
                             style="fill:none;stroke:#000000;stroke-width:0.25;stroke-linecap:butt;stroke-linejoin:miter;stroke-miterlimit:10;stroke-dasharray:none;stroke-opacity:1"
                             id="path41565" />
                        </g>
                        <g
                           transform="translate(0.2498,0.2501)"
                           id="g41571">
                          <path
                             d="M 0,0 47.5,47.5"
                             style="fill:none;stroke:#000000;stroke-width:0.25;stroke-linecap:butt;stroke-linejoin:miter;stroke-miterlimit:10;stroke-dasharray:none;stroke-opacity:1"
                             id="path41569" />
                        </g>
                        <g
                           transform="translate(24.0005,13.9999)"
                           id="g41575">
                          <path
                             d="m 0,0 c -5.523,0 -10,4.477 -10,10 0,5.522 4.477,10 10,10 C 5.522,20 10,15.522 10,10 10,4.477 5.522,0 0,0 Z"
                             style="fill:none;stroke:#000000;stroke-width:0.25;stroke-linecap:butt;stroke-linejoin:miter;stroke-miterlimit:10;stroke-dasharray:none;stroke-opacity:1"
                             id="path41573" />
                        </g>
                        <g
                           transform="translate(23.9998,4.0001)"
                           id="g41579">
                          <path
                             d="m 0,0 c -11.054,0 -20,8.947 -20,20 0,11.053 8.946,20 20,20 C 11.053,40 20,31.053 20,20 20,8.947 11.053,0 0,0 Z"
                             style="fill:none;stroke:#000000;stroke-width:0.25;stroke-linecap:butt;stroke-linejoin:miter;stroke-miterlimit:10;stroke-dasharray:none;stroke-opacity:1"
                             id="path41577" />
                        </g>
                        <g
                           transform="translate(37.9998,6.0001)"
                           id="g41583">
                          <path
                             d="m 0,0 h -28 c -2.211,0 -4,1.791 -4,4 v 28 c 0,2.209 1.789,4 4,4 H 0 c 2.211,0 4,-1.791 4,-4 V 4 C 4,1.791 2.211,0 0,0 Z"
                             style="fill:none;stroke:#000000;stroke-width:0.25;stroke-linecap:butt;stroke-linejoin:miter;stroke-miterlimit:10;stroke-dasharray:none;stroke-opacity:1"
                             id="path41581" />
                        </g>
                        <g
                           transform="translate(39.9998,8.0001)"
                           id="g41587">
                          <path
                             d="m 0,0 h -32 c -2.209,0 -4,1.791 -4,4 v 24 c 0,2.209 1.791,4 4,4 H 0 c 2.209,0 4,-1.791 4,-4 V 4 C 4,1.791 2.209,0 0,0 Z"
                             style="fill:none;stroke:#000000;stroke-width:0.25;stroke-linecap:butt;stroke-linejoin:miter;stroke-miterlimit:10;stroke-dasharray:none;stroke-opacity:1"
                             id="path41585" />
                        </g>
                        <g
                           transform="translate(39.9998,40.0001)"
                           id="g41591">
                          <path
                             d="m 0,0 v -32 c 0,-2.209 -1.791,-4 -4,-4 h -24 c -2.209,0 -4,1.791 -4,4 V 0 c 0,2.209 1.791,4 4,4 H -4 C -1.791,4 0,2.209 0,0 Z"
                             style="fill:none;stroke:#000000;stroke-width:0.25;stroke-linecap:butt;stroke-linejoin:miter;stroke-miterlimit:10;stroke-dasharray:none;stroke-opacity:1"
                             id="path41589" />
                        </g>
                        <path
                           d="M 48,0 H 0 V 48 H 48 Z M 47.75,47.75 H 0.25 V 0.25 h 47.5 z"
                           style="fill:#000000;fill-opacity:1;fill-rule:nonzero;stroke:none"
                           id="path41593" />
                      </g>
                    </g>
                  </g>
                </g>
              </g>
            </g>
          </g>
        </g>
      </g>
    </g>
  </g>
  <g
     inkscape:groupmode="layer"
     id="layer7"
     inkscape:label="sketch"
     style="display:inline;stroke:#cc1414;fill:none">
    <path
       style="display:none;fill:none;stroke:#cc1414"
       id="path38"
       sodipodi:type="arc"
       sodipodi:cx="11.999069"
       sodipodi:cy="9.4458952"
       sodipodi:rx="10.000143"
       sodipodi:ry="6.9999723"
       sodipodi:start="2.0943951"
       sodipodi:end="0.26179939"
       sodipodi:open="true"
       sodipodi:arc-type="arc"
       d="M 6.9989977,15.508049 A 10.000143,6.9999723 0 0 1 2.9358617,6.4875791 10.000143,6.9999723 0 0 1 15.41932,2.8680728 10.000143,6.9999723 0 0 1 21.658466,11.257621" />
  </g>
  <g
     inkscape:groupmode="layer"
     id="layer8"
     inkscape:label="Image"
     style="fill:#000000;stroke:#000000">
    <path
       id="path37"
       style="fill:#000000;stroke:none"
       d="m 6,22 v -1 h 8.25352 l 2.628575,-2.601144 0.08911,-3.686841 -1.971201,2 L 14,17 v -0.740813 l 3,-3 L 18,13 l 0.0288,6 -3.345582,3 z m 0,0 v -1 h 8.25352 l 2.628575,-2.601144 0.08911,-3.686841 -1.971201,2 L 14,17 v -0.740813 l 3,-3 L 18,13 l 0.0288,6 -3.345582,3 z m 0,-6 3,-3 h 9 v 1 H 9.7408132 l -2.5467838,2.518006 z m 0,6 v -6 h 9 v 5.625619 L 14,22 V 17 H 7 v 5 z" />
    <path
       style="fill:#000000;stroke:none"
       d="M 6,14 C 4.1871146,14.700874 2.6431087,10.910604 3,9 3.6978597,5.2640348 8.1994152,2 12,2 c 2,0 13,0 7,8 l 1.292893,1.292893 A 0.41421356,0.41421356 112.5 0 1 20,12 l -4,0 V 8 A 0.41421356,0.41421356 157.5 0 1 16.707107,7.7071068 L 18,9 C 23,3.5106086 14,4 11.999857,3.9999536 9.132445,3.9998871 6.0544382,6.333502 5,9 c -0.6250237,1.58058 2.5853223,4.387104 1,5 z"
       id="path39"
       sodipodi:nodetypes="aascccccsaa"
       inkscape:path-effect="#path-effect39"
       inkscape:original-d="M 6,14 C 4.1871146,14.700874 2.6431087,10.910604 3,9 3.6978597,5.2640348 8.1994152,2 12,2 c 2,0 13,0 7,8 l 2,2 H 16 V 7 l 2,2 C 23,3.5106086 14,4 11.999857,3.9999536 9.132445,3.9998871 6.0544382,6.333502 5,9 c -0.6250237,1.58058 2.5853223,4.387104 1,5 z" />
  </g>
</svg>
