<?xml version="1.0" encoding="UTF-8" standalone="no"?>
<!-- Created with Inkscape (http://www.inkscape.org/) -->

<svg
   version="1.1"
   id="svg41187"
   width="24"
   height="24"
   viewBox="0 0 24 24"
   sodipodi:docname="indexing.svg"
   inkscape:version="1.3 (0e150ed, 2023-07-21)"
   xmlns:inkscape="http://www.inkscape.org/namespaces/inkscape"
   xmlns:sodipodi="http://sodipodi.sourceforge.net/DTD/sodipodi-0.dtd"
   xmlns:xlink="http://www.w3.org/1999/xlink"
   xmlns="http://www.w3.org/2000/svg"
   xmlns:svg="http://www.w3.org/2000/svg">
  <defs
     id="defs41191">
    <inkscape:path-effect
       effect="fillet_chamfer"
       id="path-effect4"
       is_visible="true"
       lpeversion="1"
       nodesatellites_param="F,0,0,1,0,0,0,1 @ F,0,0,1,0,0,0,1 @ F,0,0,1,0,0,0,1 @ F,0,0,1,0,1,0,1 @ F,0,0,1,0,0,0,1"
       radius="0"
       unit="px"
       method="auto"
       mode="F"
       chamfer_steps="1"
       flexible="false"
       use_knot_distance="true"
       apply_no_radius="true"
       apply_with_radius="true"
       only_selected="false"
       hide_knots="false" />
    <clipPath
       clipPathUnits="userSpaceOnUse"
       id="clipPath41203">
      <path
         d="M 0,24 H 24 V 0 H 0 Z"
         id="path41201" />
    </clipPath>
    <clipPath
       clipPathUnits="userSpaceOnUse"
       id="clipPath41211">
      <path
         d="M 2.00005,22 H 22 V 2.00005 H 2.00005 Z"
         id="path41209" />
    </clipPath>
    <clipPath
       clipPathUnits="userSpaceOnUse"
       id="clipPath41227">
      <path
         d="M 3,21 H 21 V 3 H 3 Z"
         id="path41225" />
    </clipPath>
    <clipPath
       clipPathUnits="userSpaceOnUse"
       id="clipPath41243">
      <path
         d="M 4,22 H 20 V 2 H 4 Z"
         id="path41241" />
    </clipPath>
    <clipPath
       clipPathUnits="userSpaceOnUse"
       id="clipPath41259">
      <path
         d="M 2,20 H 22 V 4 H 2 Z"
         id="path41257" />
    </clipPath>
    <clipPath
       clipPathUnits="userSpaceOnUse"
       id="clipPath41275">
      <path
         d="M 0,24 H 24 V 0 H 0 Z"
         id="path41273" />
    </clipPath>
    <clipPath
       clipPathUnits="userSpaceOnUse"
       id="clipPath41285">
      <path
         d="M 0,48 H 48 V 0 H 0 Z"
         id="path41283" />
    </clipPath>
    <clipPath
       clipPathUnits="userSpaceOnUse"
       id="clipPath41293">
      <path
         d="M 0,24 H 24 V 0 H 0 Z"
         id="path41291" />
    </clipPath>
    <clipPath
       clipPathUnits="userSpaceOnUse"
       id="clipPath41301">
      <path
         d="M -2.13623e-4,24.0002 H 23.9997 V 2.74658e-4 H -2.13623e-4 Z"
         id="path41299" />
    </clipPath>
    <clipPath
       clipPathUnits="userSpaceOnUse"
       id="clipPath41305">
      <path
         d="M -2.13623e-4,47.9998 H 47.9998 V -1.52588e-4 H -2.13623e-4 Z"
         id="path41303" />
    </clipPath>
    <clipPath
       clipPathUnits="userSpaceOnUse"
       id="clipPath41309">
      <path
         d="M 48,48 H 0 V 0 h 48 z"
         id="path41307" />
    </clipPath>
    <clipPath
       clipPathUnits="userSpaceOnUse"
       id="clipPath41517">
      <path
         d="M 0,24 H 24 V 0 H 0 Z"
         id="path41515" />
    </clipPath>
    <clipPath
       clipPathUnits="userSpaceOnUse"
       id="clipPath41527">
      <path
         d="M -2.28882e-4,48.0001 H 47.9998 V 1.2207e-4 H -2.28882e-4 Z"
         id="path41525" />
    </clipPath>
    <clipPath
       clipPathUnits="userSpaceOnUse"
       id="clipPath41535">
      <path
         d="M -2.28882e-4,48.0001 H 47.9998 V 1.2207e-4 H -2.28882e-4 Z"
         id="path41533" />
    </clipPath>
    <clipPath
       clipPathUnits="userSpaceOnUse"
       id="clipPath41539">
      <path
         d="M 0,0 H 48 V 48 H 0 Z"
         id="path41537" />
    </clipPath>
  </defs>
  <sodipodi:namedview
     id="namedview41189"
     pagecolor="#505050"
     bordercolor="#eeeeee"
     borderopacity="1"
     inkscape:showpageshadow="0"
     inkscape:pageopacity="0"
     inkscape:pagecheckerboard="0"
     inkscape:deskcolor="#505050"
     showgrid="true"
     inkscape:zoom="20.059172"
     inkscape:cx="11.04233"
     inkscape:cy="13.933776"
     inkscape:window-width="1512"
     inkscape:window-height="860"
     inkscape:window-x="0"
     inkscape:window-y="38"
     inkscape:window-maximized="0"
     inkscape:current-layer="layer8">
    <inkscape:page
       x="0"
       y="0"
       id="page41193"
       width="24"
       height="24"
       margin="0"
       bleed="0" />
    <inkscape:grid
       type="xygrid"
       id="grid41720"
       originx="0"
       originy="0"
       empspacing="4"
       spacingy="1"
       spacingx="1"
       units="px"
       visible="true" />
  </sodipodi:namedview>
  <g
     inkscape:groupmode="layer"
     id="layer8"
     inkscape:label="Image">
    <path
       style="stroke:none;stroke-linecap:butt;stroke-linejoin:miter"
       d="m 13,21 h -1 v -7 l 3.292893,3.292893 A 0.41421356,0.41421356 112.5 0 1 15,18 h -2"
       id="path2"
       sodipodi:nodetypes="ccccc"
       inkscape:original-d="m 13,21 h -1 v -7 l 4,4 h -3"
       inkscape:path-effect="#path-effect4"
       transform="translate(-1)" />
    <path
       style="font-weight:bold;font-size:8px;line-height:2.9;font-family:Futura;-inkscape-font-specification:Futura;text-align:center;letter-spacing:0px;word-spacing:3px;text-anchor:middle;stroke-width:1.38207;stroke-linecap:round;stroke-linejoin:round"
       d="M 9.0036761,16.314041 V 22 h -1.996323 v -5.685959 z m -2.128676,-2.183497 q 0,-0.232758 0.088235,-0.432266 0.088235,-0.210591 0.2426469,-0.365763 0.1544117,-0.155173 0.3529411,-0.243843 0.2095587,-0.08867 0.4411764,-0.08867 0.2316176,0 0.4301469,0.08867 0.2095588,0.08867 0.3639706,0.243843 0.1544117,0.155172 0.2426469,0.365763 0.088236,0.199508 0.088236,0.432266 0,0.232759 -0.088235,0.44335 -0.088235,0.199507 -0.2426469,0.35468 Q 8.6397058,15.083746 8.4301469,15.172415 8.2316177,15.261085 8,15.261085 q -0.2316176,0 -0.4411764,-0.08867 -0.1985296,-0.08867 -0.3529413,-0.243841 -0.1544117,-0.155173 -0.2426469,-0.35468 -0.088235,-0.210591 -0.088235,-0.44335 z"
       id="text1"
       aria-label="i" />
    <path
       style="fill-opacity:1;stroke:none;stroke-width:1;stroke-linecap:square;stroke-linejoin:miter;stroke-dasharray:none"
       d="m 11.999857,11.999972 2.999953,-9.63e-4 1.000095,-2.9999631 -1.000095,-3.71e-5 -1,2.0000002 L 12,11 H 10 L 9,9 8.0001906,9.0000371 9,12 Z"
       id="path4"
       sodipodi:nodetypes="ccccccccccc"
       inkscape:tile-cx="11.999905"
       inkscape:tile-cy="10.499504"
       inkscape:tile-w="8.0000003"
       inkscape:tile-h="3.0009912"
       inkscape:tile-x0="7.9999047"
       inkscape:tile-y0="8.9990088" />
    <use
       x="0"
       y="0"
       inkscape:tiled-clone-of="#path4"
       xlink:href="#path4"
       id="use4"
       style="display:none" />
    <use
       x="0"
       y="0"
       inkscape:tiled-clone-of="#path4"
       xlink:href="#path4"
       transform="translate(-7,-4)"
       id="use5" />
    <use
       x="0"
       y="0"
       inkscape:tiled-clone-of="#path4"
       xlink:href="#path4"
       transform="translate(7,4)"
       id="use6" />
  </g>
</svg>
