<?xml version="1.0" encoding="UTF-8" standalone="no"?>
<!-- Created with Inkscape (http://www.inkscape.org/) -->

<svg
   version="1.1"
   id="svg41187"
   width="24"
   height="24"
   viewBox="0 0 24 24"
   sodipodi:docname="out-of-place.svg"
   inkscape:version="1.3 (0e150ed, 2023-07-21)"
   xmlns:inkscape="http://www.inkscape.org/namespaces/inkscape"
   xmlns:sodipodi="http://sodipodi.sourceforge.net/DTD/sodipodi-0.dtd"
   xmlns="http://www.w3.org/2000/svg"
   xmlns:svg="http://www.w3.org/2000/svg">
  <defs
     id="defs41191">
    <marker
       style="overflow:visible"
       id="DartArrow"
       refX="0"
       refY="0"
       orient="auto-start-reverse"
       inkscape:stockid="Dart arrow"
       markerWidth="0.5"
       markerHeight="0.5"
       viewBox="0 0 1 1"
       inkscape:isstock="true"
       inkscape:collect="always"
       preserveAspectRatio="xMidYMid">
      <path
         style="fill:context-stroke;fill-rule:evenodd;stroke:none"
         d="M 0,0 5,-5 -12.5,0 5,5 Z"
         transform="scale(-0.5)"
         id="path32" />
    </marker>
    <inkscape:perspective
       sodipodi:type="inkscape:persp3d"
       inkscape:vp_x="-12.649111 : -1.5490693e-15 : 0"
       inkscape:vp_y="0 : 1000 : 0"
       inkscape:vp_z="8.9442716 : 8.9442716 : 0"
       inkscape:persp3d-origin="7.8514761 : 17.295439 : 1"
       id="perspective31" />
    <inkscape:path-effect
       effect="bspline"
       id="path-effect25"
       is_visible="true"
       lpeversion="1.3"
       weight="33.333333"
       steps="2"
       helper_size="0"
       apply_no_weight="true"
       apply_with_weight="true"
       only_selected="false"
       uniform="false" />
    <linearGradient
       id="swatch23"
       inkscape:swatch="solid">
      <stop
         style="stop-color:#8c8c8c;stop-opacity:1;"
         offset="0"
         id="stop23" />
    </linearGradient>
    <inkscape:perspective
       sodipodi:type="inkscape:persp3d"
       inkscape:vp_x="-10.212326 : -1.2506493e-15 : 0"
       inkscape:vp_y="0 : 1000 : 0"
       inkscape:vp_z="12.148897 : 12.148897 : 0"
       inkscape:persp3d-origin="9.9469794 : 6.331754 : 1"
       id="perspective1" />
    <clipPath
       clipPathUnits="userSpaceOnUse"
       id="clipPath41203">
      <path
         d="M 0,24 H 24 V 0 H 0 Z"
         id="path41201" />
    </clipPath>
    <clipPath
       clipPathUnits="userSpaceOnUse"
       id="clipPath41211">
      <path
         d="M 2.00005,22 H 22 V 2.00005 H 2.00005 Z"
         id="path41209" />
    </clipPath>
    <clipPath
       clipPathUnits="userSpaceOnUse"
       id="clipPath41227">
      <path
         d="M 3,21 H 21 V 3 H 3 Z"
         id="path41225" />
    </clipPath>
    <clipPath
       clipPathUnits="userSpaceOnUse"
       id="clipPath41243">
      <path
         d="M 4,22 H 20 V 2 H 4 Z"
         id="path41241" />
    </clipPath>
    <clipPath
       clipPathUnits="userSpaceOnUse"
       id="clipPath41259">
      <path
         d="M 2,20 H 22 V 4 H 2 Z"
         id="path41257" />
    </clipPath>
    <clipPath
       clipPathUnits="userSpaceOnUse"
       id="clipPath41275">
      <path
         d="M 0,24 H 24 V 0 H 0 Z"
         id="path41273" />
    </clipPath>
    <clipPath
       clipPathUnits="userSpaceOnUse"
       id="clipPath41285">
      <path
         d="M 0,48 H 48 V 0 H 0 Z"
         id="path41283" />
    </clipPath>
    <clipPath
       clipPathUnits="userSpaceOnUse"
       id="clipPath41293">
      <path
         d="M 0,24 H 24 V 0 H 0 Z"
         id="path41291" />
    </clipPath>
    <clipPath
       clipPathUnits="userSpaceOnUse"
       id="clipPath41301">
      <path
         d="M -2.13623e-4,24.0002 H 23.9997 V 2.74658e-4 H -2.13623e-4 Z"
         id="path41299" />
    </clipPath>
    <clipPath
       clipPathUnits="userSpaceOnUse"
       id="clipPath41305">
      <path
         d="M -2.13623e-4,47.9998 H 47.9998 V -1.52588e-4 H -2.13623e-4 Z"
         id="path41303" />
    </clipPath>
    <clipPath
       clipPathUnits="userSpaceOnUse"
       id="clipPath41309">
      <path
         d="M 48,48 H 0 V 0 h 48 z"
         id="path41307" />
    </clipPath>
    <clipPath
       clipPathUnits="userSpaceOnUse"
       id="clipPath41517">
      <path
         d="M 0,24 H 24 V 0 H 0 Z"
         id="path41515" />
    </clipPath>
    <clipPath
       clipPathUnits="userSpaceOnUse"
       id="clipPath41527">
      <path
         d="M -2.28882e-4,48.0001 H 47.9998 V 1.2207e-4 H -2.28882e-4 Z"
         id="path41525" />
    </clipPath>
    <clipPath
       clipPathUnits="userSpaceOnUse"
       id="clipPath41535">
      <path
         d="M -2.28882e-4,48.0001 H 47.9998 V 1.2207e-4 H -2.28882e-4 Z"
         id="path41533" />
    </clipPath>
    <clipPath
       clipPathUnits="userSpaceOnUse"
       id="clipPath41539">
      <path
         d="M 0,0 H 48 V 48 H 0 Z"
         id="path41537" />
    </clipPath>
  </defs>
  <sodipodi:namedview
     id="namedview41189"
     pagecolor="#505050"
     bordercolor="#eeeeee"
     borderopacity="1"
     inkscape:showpageshadow="0"
     inkscape:pageopacity="0"
     inkscape:pagecheckerboard="0"
     inkscape:deskcolor="#505050"
     showgrid="false"
     inkscape:zoom="1"
     inkscape:cx="14.5"
     inkscape:cy="6.5"
     inkscape:window-width="1512"
     inkscape:window-height="888"
     inkscape:window-x="0"
     inkscape:window-y="38"
     inkscape:window-maximized="0"
     inkscape:current-layer="layer8">
    <inkscape:page
       x="0"
       y="0"
       id="page41193"
       width="24"
       height="24"
       margin="0"
       bleed="0" />
    <inkscape:grid
       type="xygrid"
       id="grid41720"
       originx="0"
       originy="0"
       empspacing="4"
       spacingy="1"
       spacingx="1"
       units="px"
       visible="false" />
  </sodipodi:namedview>
  <g
     id="g41195"
     inkscape:groupmode="layer"
     inkscape:label="ref"
     transform="matrix(1.3333333,0,0,-1.3333333,0,32)"
     style="display:none">
    <g
       id="g41269"
       style="display:inline"
       transform="matrix(0.75001255,0,0,0.75000536,-5.3597189e-5,5.9998912)">
      <g
         id="g41271"
         clip-path="url(#clipPath41275)">
        <g
           id="g41277"
           transform="matrix(0.4999976,0,0,-0.4999976,-1.144e-4,24.00008)">
          <g
             id="g41279">
            <g
               id="g41281"
               clip-path="url(#clipPath41285)" />
          </g>
        </g>
      </g>
    </g>
    <g
       id="g41511"
       style="display:inline"
       transform="matrix(0.75001255,0,0,0.75000536,-5.3597189e-5,5.9998912)">
      <g
         id="g41513"
         clip-path="url(#clipPath41517)">
        <g
           id="g41519"
           transform="matrix(0.4999976,0,0,-0.4999976,-1.144e-4,24.00008)">
          <g
             id="g41521">
            <g
               id="g41523"
               clip-path="url(#clipPath41527)">
              <g
                 id="g41529">
                <g
                   id="g41531" />
                <g
                   id="g41601">
                  <g
                     clip-path="url(#clipPath41535)"
                     opacity="0.399994"
                     id="g41599">
                    <g
                       id="g41597">
                      <g
                         clip-path="url(#clipPath41539)"
                         id="g41595">
                        <g
                           transform="translate(23.9998,1e-4)"
                           id="g41543">
                          <path
                             d="M 0,0 V 48"
                             style="fill:none;stroke:#000000;stroke-width:0.25;stroke-linecap:butt;stroke-linejoin:miter;stroke-miterlimit:10;stroke-dasharray:none;stroke-opacity:1"
                             id="path41541" />
                        </g>
                        <g
                           transform="translate(47.9998,24.0001)"
                           id="g41547">
                          <path
                             d="M 0,0 H -48"
                             style="fill:none;stroke:#000000;stroke-width:0.25;stroke-linecap:butt;stroke-linejoin:miter;stroke-miterlimit:10;stroke-dasharray:none;stroke-opacity:1"
                             id="path41545" />
                        </g>
                        <g
                           transform="translate(47.9998,16.0001)"
                           id="g41551">
                          <path
                             d="M 0,0 H -48"
                             style="fill:none;stroke:#000000;stroke-width:0.25;stroke-linecap:butt;stroke-linejoin:miter;stroke-miterlimit:10;stroke-dasharray:none;stroke-opacity:1"
                             id="path41549" />
                        </g>
                        <g
                           transform="translate(47.9998,32.0001)"
                           id="g41555">
                          <path
                             d="M 0,0 H -48"
                             style="fill:none;stroke:#000000;stroke-width:0.25;stroke-linecap:butt;stroke-linejoin:miter;stroke-miterlimit:10;stroke-dasharray:none;stroke-opacity:1"
                             id="path41553" />
                        </g>
                        <g
                           transform="translate(31.9998,48.0001)"
                           id="g41559">
                          <path
                             d="M 0,0 V -48"
                             style="fill:none;stroke:#000000;stroke-width:0.25;stroke-linecap:butt;stroke-linejoin:miter;stroke-miterlimit:10;stroke-dasharray:none;stroke-opacity:1"
                             id="path41557" />
                        </g>
                        <g
                           transform="translate(15.9998,48.0001)"
                           id="g41563">
                          <path
                             d="M 0,0 V -48"
                             style="fill:none;stroke:#000000;stroke-width:0.25;stroke-linecap:butt;stroke-linejoin:miter;stroke-miterlimit:10;stroke-dasharray:none;stroke-opacity:1"
                             id="path41561" />
                        </g>
                        <g
                           transform="translate(47.7498,0.2501)"
                           id="g41567">
                          <path
                             d="M 0,0 -47.5,47.5"
                             style="fill:none;stroke:#000000;stroke-width:0.25;stroke-linecap:butt;stroke-linejoin:miter;stroke-miterlimit:10;stroke-dasharray:none;stroke-opacity:1"
                             id="path41565" />
                        </g>
                        <g
                           transform="translate(0.2498,0.2501)"
                           id="g41571">
                          <path
                             d="M 0,0 47.5,47.5"
                             style="fill:none;stroke:#000000;stroke-width:0.25;stroke-linecap:butt;stroke-linejoin:miter;stroke-miterlimit:10;stroke-dasharray:none;stroke-opacity:1"
                             id="path41569" />
                        </g>
                        <g
                           transform="translate(24.0005,13.9999)"
                           id="g41575">
                          <path
                             d="m 0,0 c -5.523,0 -10,4.477 -10,10 0,5.522 4.477,10 10,10 C 5.522,20 10,15.522 10,10 10,4.477 5.522,0 0,0 Z"
                             style="fill:none;stroke:#000000;stroke-width:0.25;stroke-linecap:butt;stroke-linejoin:miter;stroke-miterlimit:10;stroke-dasharray:none;stroke-opacity:1"
                             id="path41573" />
                        </g>
                        <g
                           transform="translate(23.9998,4.0001)"
                           id="g41579">
                          <path
                             d="m 0,0 c -11.054,0 -20,8.947 -20,20 0,11.053 8.946,20 20,20 C 11.053,40 20,31.053 20,20 20,8.947 11.053,0 0,0 Z"
                             style="fill:none;stroke:#000000;stroke-width:0.25;stroke-linecap:butt;stroke-linejoin:miter;stroke-miterlimit:10;stroke-dasharray:none;stroke-opacity:1"
                             id="path41577" />
                        </g>
                        <g
                           transform="translate(37.9998,6.0001)"
                           id="g41583">
                          <path
                             d="m 0,0 h -28 c -2.211,0 -4,1.791 -4,4 v 28 c 0,2.209 1.789,4 4,4 H 0 c 2.211,0 4,-1.791 4,-4 V 4 C 4,1.791 2.211,0 0,0 Z"
                             style="fill:none;stroke:#000000;stroke-width:0.25;stroke-linecap:butt;stroke-linejoin:miter;stroke-miterlimit:10;stroke-dasharray:none;stroke-opacity:1"
                             id="path41581" />
                        </g>
                        <g
                           transform="translate(39.9998,8.0001)"
                           id="g41587">
                          <path
                             d="m 0,0 h -32 c -2.209,0 -4,1.791 -4,4 v 24 c 0,2.209 1.791,4 4,4 H 0 c 2.209,0 4,-1.791 4,-4 V 4 C 4,1.791 2.209,0 0,0 Z"
                             style="fill:none;stroke:#000000;stroke-width:0.25;stroke-linecap:butt;stroke-linejoin:miter;stroke-miterlimit:10;stroke-dasharray:none;stroke-opacity:1"
                             id="path41585" />
                        </g>
                        <g
                           transform="translate(39.9998,40.0001)"
                           id="g41591">
                          <path
                             d="m 0,0 v -32 c 0,-2.209 -1.791,-4 -4,-4 h -24 c -2.209,0 -4,1.791 -4,4 V 0 c 0,2.209 1.791,4 4,4 H -4 C -1.791,4 0,2.209 0,0 Z"
                             style="fill:none;stroke:#000000;stroke-width:0.25;stroke-linecap:butt;stroke-linejoin:miter;stroke-miterlimit:10;stroke-dasharray:none;stroke-opacity:1"
                             id="path41589" />
                        </g>
                        <path
                           d="M 48,0 H 0 V 48 H 48 Z M 47.75,47.75 H 0.25 V 0.25 h 47.5 z"
                           style="fill:#000000;fill-opacity:1;fill-rule:nonzero;stroke:none"
                           id="path41593" />
                      </g>
                    </g>
                  </g>
                </g>
              </g>
            </g>
          </g>
        </g>
      </g>
    </g>
  </g>
  <g
     inkscape:groupmode="layer"
     id="layer7"
     inkscape:label="sketch"
     style="display:none">
    <path
       style="fill:none;stroke:#c62717;marker-end:url(#DartArrow)"
       d="M 9.5000533,16 C 10.500053,16 11.500037,16 12.000045,14.166637 12.500053,12.333274 12.500053,8.6666626 11.500054,6.8333313 10.500056,5 8.5000631,5 6.5000533,5"
       id="path25"
       inkscape:path-effect="#path-effect25"
       inkscape:original-d="m 9.5000533,16 c 0.9999997,0 1.9999837,0 2.9999997,0 0,-3.666726 0,-7.3333374 0,-11 -1.999997,0 -3.9999899,0 -5.9999997,0"
       transform="translate(9.4999467)"
       sodipodi:nodetypes="cccc" />
    <g
       sodipodi:type="inkscape:box3d"
       id="g31"
       style="fill:none;stroke:#c62717"
       inkscape:perspectiveID="#perspective31"
       inkscape:corner0="0.43539065 : 0.00061815845 : 0 : 1"
       inkscape:corner7="-0.039438671 : -0.004520693 : 0.37025454 : 1">
      <path
         sodipodi:type="inkscape:box3dside"
         id="path26"
         style="fill:none;fill-rule:evenodd;stroke:#c62717"
         inkscape:box3dsidetype="11"
         d="m 5.6558286,2.7747454 6.0061684,0 V 7.9135968 H 5.6558286 Z"
         points="11.661997,2.7747454 11.661997,7.9135968 5.6558286,7.9135968 5.6558286,2.7747454 " />
      <path
         sodipodi:type="inkscape:box3dside"
         id="path27"
         style="fill:none;fill-rule:evenodd;stroke:#c62717"
         inkscape:box3dsidetype="6"
         d="M 2.3441714,6.0864026 V 11.225254 L 5.6558286,7.9135968 V 2.7747454 Z"
         points="2.3441714,11.225254 5.6558286,7.9135968 5.6558286,2.7747454 2.3441714,6.0864026 " />
      <path
         sodipodi:type="inkscape:box3dside"
         id="path28"
         style="fill:none;fill-rule:evenodd;stroke:#c62717"
         inkscape:box3dsidetype="13"
         d="M 2.3441714,11.225254 H 8.3503402 L 11.661997,7.9135968 H 5.6558286 Z"
         points="8.3503402,11.225254 11.661997,7.9135968 5.6558286,7.9135968 2.3441714,11.225254 " />
      <path
         sodipodi:type="inkscape:box3dside"
         id="path29"
         style="fill:none;fill-rule:evenodd;stroke:#c62717"
         inkscape:box3dsidetype="5"
         d="m 2.3441714,6.0864026 6.0061688,0 3.3116568,-3.3116572 -6.0061684,0 z"
         points="8.3503402,6.0864026 11.661997,2.7747454 5.6558286,2.7747454 2.3441714,6.0864026 " />
      <path
         sodipodi:type="inkscape:box3dside"
         id="path30"
         style="fill:none;fill-rule:evenodd;stroke:#c62717"
         inkscape:box3dsidetype="14"
         d="M 8.3503402,6.0864026 V 11.225254 L 11.661997,7.9135968 V 2.7747454 Z"
         points="8.3503402,11.225254 11.661997,7.9135968 11.661997,2.7747454 8.3503402,6.0864026 " />
      <path
         sodipodi:type="inkscape:box3dside"
         id="path31"
         style="fill:none;fill-rule:evenodd;stroke:#c62717"
         inkscape:box3dsidetype="3"
         d="m 2.3441714,6.0864026 6.0061688,0 V 11.225254 H 2.3441714 Z"
         points="8.3503402,6.0864026 8.3503402,11.225254 2.3441714,11.225254 2.3441714,6.0864026 " />
    </g>
    <g
       sodipodi:type="inkscape:box3d"
       id="g18"
       style="fill:none;stroke:#c62717"
       inkscape:perspectiveID="#perspective1"
       inkscape:corner0="0.33753127 : 0.0011548579 : 0 : 1"
       inkscape:corner7="-0.44283414 : -0.003831754 : 0.24633473 : 1"
       inkscape:label="g18">
      <path
         sodipodi:type="inkscape:box3dside"
         id="path23"
         style="fill:none;fill-rule:evenodd;stroke:#c62717"
         inkscape:box3dsidetype="11"
         d="m 9.4926953,13.520693 7.9693457,0 v 4.986612 H 9.4926953 Z"
         points="17.462041,13.520693 17.462041,18.507305 9.4926953,18.507305 9.4926953,13.520693 " />
      <path
         sodipodi:type="inkscape:box3dside"
         id="path18"
         style="fill:none;fill-rule:evenodd;stroke:#c62717"
         inkscape:box3dsidetype="6"
         d="M 6.5,16.513388 V 21.5 l 2.9926953,-2.992695 v -4.986612 z"
         points="6.5,21.5 9.4926953,18.507305 9.4926953,13.520693 6.5,16.513388 " />
      <path
         sodipodi:type="inkscape:box3dside"
         id="path22"
         style="fill:none;fill-rule:evenodd;stroke:#c62717"
         inkscape:box3dsidetype="13"
         d="m 6.5,21.5 h 7.969346 l 2.992695,-2.992695 H 9.4926953 Z"
         points="14.469346,21.5 17.462041,18.507305 9.4926953,18.507305 6.5,21.5 " />
      <path
         sodipodi:type="inkscape:box3dside"
         id="path19"
         style="fill:none;fill-rule:evenodd;stroke:#c62717"
         inkscape:box3dsidetype="5"
         d="m 6.5,16.513388 h 7.969346 l 2.992695,-2.992695 -7.9693457,0 z"
         points="14.469346,16.513388 17.462041,13.520693 9.4926953,13.520693 6.5,16.513388 " />
      <path
         sodipodi:type="inkscape:box3dside"
         id="path21"
         style="fill:none;fill-rule:evenodd;stroke:#c62717"
         inkscape:box3dsidetype="14"
         d="M 14.469346,16.513388 V 21.5 l 2.992695,-2.992695 v -4.986612 z"
         points="14.469346,21.5 17.462041,18.507305 17.462041,13.520693 14.469346,16.513388 " />
      <path
         sodipodi:type="inkscape:box3dside"
         id="path20"
         style="fill:none;fill-rule:evenodd;stroke:#c62717"
         inkscape:box3dsidetype="3"
         d="m 6.5,16.513388 h 7.969346 V 21.5 H 6.5 Z"
         points="14.469346,16.513388 14.469346,21.5 6.5,21.5 6.5,16.513388 " />
    </g>
  </g>
  <g
     inkscape:groupmode="layer"
     id="layer8"
     inkscape:label="Image"
     style="fill:#8c8c8c;stroke:#000000">
    <path
       style="fill:#000000;stroke:none"
       d="M 13,5 17,7 16.510348,5.4180738 C 17.702999,5.3982354 19.198118,5.9146501 20,7 c 0.872043,1.1803123 1.33047,2.9763442 1.33047,4 0,2 0.325345,4.510567 -2.33047,4.48584 v 0.985104 C 22.75325,16.648886 22.33047,13 22.33047,11 22.33047,9.3003268 22.178263,7.2594273 21,6 19.915767,4.8410799 18,4.4890302 16.490646,4.4723736 L 17,3 Z"
       id="path33"
       sodipodi:nodetypes="cccssccsaccc" />
    <path
       id="path37"
       style="fill:#000000;stroke:none"
       d="m 6,22 v -1 h 8.25352 l 2.628575,-2.601144 0.08911,-3.686841 -1.971201,2 L 14,17 v -0.740813 l 3,-3 L 18,13 l 0.0288,6 -3.345582,3 z m 0,0 v -1 h 8.25352 l 2.628575,-2.601144 0.08911,-3.686841 -1.971201,2 L 14,17 v -0.740813 l 3,-3 L 18,13 l 0.0288,6 -3.345582,3 z m 0,-6 3,-3 h 9 v 1 H 9.7408132 l -2.5467838,2.518006 z m 0,6 v -6 h 9 v 5.625619 L 14,22 V 17 H 7 v 5 z" />
    <path
       id="path38"
       style="fill:#000000;stroke:none;stroke-width:0.911777"
       d="M 2,11 V 10 H 8.8614658 L 11.0467,7.398856 l 0.07408,-3.686841 -1.6387346,2 L 8.650705,6 V 5.259187 l 2.494014,-3 L 11.976057,2 12,8 9.2186901,11 Z m 0,0 V 10 H 8.8614658 L 11.0467,7.398856 l 0.07408,-3.686841 -1.6387346,2 L 8.650705,6 V 5.259187 l 2.494014,-3 L 11.976057,2 12,8 9.2186901,11 Z M 2,5 4.4940144,2 H 11.976057 V 3 H 5.1098806 L 2.9926422,5.518006 Z m 0,6 V 5 h 7.4820431 v 5.625619 L 8.650705,11 V 6 H 2.8313381 v 5 z" />
  </g>
</svg>
