<?xml version="1.0" encoding="UTF-8" standalone="no"?>
<svg
   version="1.1"
   id="svg5937"
   height="32"
   width="32"
   sodipodi:docname="stick_me.svg"
   inkscape:version="1.3 (0e150ed, 2023-07-21)"
   xmlns:inkscape="http://www.inkscape.org/namespaces/inkscape"
   xmlns:sodipodi="http://sodipodi.sourceforge.net/DTD/sodipodi-0.dtd"
   xmlns="http://www.w3.org/2000/svg"
   xmlns:svg="http://www.w3.org/2000/svg"
   xmlns:rdf="http://www.w3.org/1999/02/22-rdf-syntax-ns#"
   xmlns:cc="http://creativecommons.org/ns#"
   xmlns:dc="http://purl.org/dc/elements/1.1/">
  <sodipodi:namedview
     id="namedview1"
     pagecolor="#505050"
     bordercolor="#eeeeee"
     borderopacity="1"
     inkscape:showpageshadow="0"
     inkscape:pageopacity="0"
     inkscape:pagecheckerboard="0"
     inkscape:deskcolor="#505050"
     showgrid="true"
     inkscape:zoom="14.439828"
     inkscape:cx="13.95446"
     inkscape:cy="3.0817542"
     inkscape:window-width="1512"
     inkscape:window-height="860"
     inkscape:window-x="0"
     inkscape:window-y="38"
     inkscape:window-maximized="0"
     inkscape:current-layer="layer1">
    <inkscape:grid
       id="grid1"
       units="px"
       originx="0"
       originy="0"
       spacingx="1"
       spacingy="1"
       empcolor="#0099e5"
       empopacity="0.30196078"
       color="#0099e5"
       opacity="0.14901961"
       empspacing="4"
       dotted="false"
       gridanglex="30"
       gridanglez="30"
       visible="true" />
  </sodipodi:namedview>
  <defs
     id="defs5939" />
  <metadata
     id="metadata5942">
    <rdf:RDF>
      <cc:Work
         rdf:about="">
        <dc:format>image/svg+xml</dc:format>
        <dc:type
           rdf:resource="http://purl.org/dc/dcmitype/StillImage" />
      </cc:Work>
    </rdf:RDF>
  </metadata>
  <g
     transform="matrix(0.05231732,0,0,0.05014305,-3.2777153,-8.650108)"
     id="layer1">
    <path
       id="path6151"
       d="m 429.6951,507.32843 c -1.05585,-1.1 -2.53898,-3.24101 -3.29584,-4.7578 -0.79101,-1.58523 -2.49947,-3.70502 -4.01818,-4.98562 -3.04289,-2.5658 -3.30929,-3.04056 -3.73526,-6.65658 l -0.31414,-2.66667 h -3.11022 c -2.83876,0 -3.24606,-0.15201 -4.66666,-1.74175 -1.93975,-2.17068 -1.94601,-3.2997 -0.0406,-7.32728 0.83325,-1.76131 1.80014,-4.06639 2.14866,-5.12241 0.34852,-1.05601 1.42939,-2.85495 2.40194,-3.99763 3.83661,-4.50774 3.62708,-6.09179 -1.2364,-9.3476 -3.34917,-2.24207 -3.97339,-3.48934 -3.5165,-7.02635 0.24499,-1.89661 0.0338,-3.44305 -0.81215,-5.94753 -1.00381,-2.97175 -1.05531,-3.56392 -0.42231,-4.85568 1.03845,-2.11915 3.13263,-3.47342 5.83376,-3.77259 3.93502,-0.43582 4.5307,-0.65025 6.06633,-2.1837 3.48693,-3.48201 2.89688,-5.99492 -2.85199,-12.1461 -5.57492,-5.96508 -7.34668,-9.10161 -8.13571,-14.40263 -0.64593,-4.33958 -1.54974,-6.13802 -3.07413,-6.11703 -0.46787,0.006 -1.93067,0.51273 -3.25067,1.12509 -1.42785,0.66239 -4.2363,1.27822 -6.93334,1.52032 -2.49333,0.22383 -6.69333,0.92755 -9.33333,1.56384 -2.64,0.6363 -6.27939,1.50688 -8.08753,1.93463 -3.92037,0.92745 -8.42762,0.99912 -11.65919,0.1854 -2.12119,-0.53412 -2.8376,-0.42566 -7.28915,1.10358 -3.47679,1.19437 -5.44934,1.59975 -6.67002,1.37075 -2.58405,-0.48477 -8.53574,-3.35552 -12.16077,-5.86564 -1.76,-1.2187 -4.2823,-2.83724 -5.6051,-3.59674 -1.32281,-0.75952 -3.19772,-2.48464 -4.16647,-3.83361 -1.76092,-2.45203 -2.43191,-2.81491 -3.70775,-2.0052 -0.83114,0.52748 -1.71237,5.62489 -1.72056,9.95253 -0.01,5.05725 -0.72237,6.77618 -3.95505,9.53795 -2.38391,2.03664 -2.97831,2.90515 -3.51265,5.13253 -0.78232,3.26109 -0.0512,4.73706 3.15713,6.37385 4.58006,2.33657 7.01201,7.22333 5.98161,12.01944 -1.03756,4.82945 -1.82255,11.86046 -1.47761,13.23478 0.1863,0.74228 1.86688,3.01479 3.73461,5.05004 5.07332,5.52829 5.39561,7.93542 2.67289,19.96308 -0.61381,2.71155 -1.4498,4.44503 -3.4512,7.15626 -2.92406,3.96116 -2.9951,4.16795 -3.3142,9.64849 -0.2876,4.93921 -1.25787,6.55024 -3.94502,6.55024 -1.83049,0 -2.63531,-0.68812 -12.98719,-11.10418 -6.06967,-6.10729 -11.65898,-12.0914 -12.42068,-13.29802 -2.04321,-3.23665 -3.34533,-4.2429 -7.1128,-5.49664 -3.04552,-1.01348 -4.35192,-1.11133 -12.66884,-0.94891 -9.14458,0.17858 -9.29193,0.16352 -10.62615,-1.08589 -0.74415,-0.69683 -1.51228,-2.01683 -1.70698,-2.93333 -0.72229,-3.40014 -3.54304,-11.29717 -4.35761,-12.19969 -0.55891,-0.61926 -1.63035,-0.93333 -3.18397,-0.93333 -1.80382,0 -2.65649,-0.31491 -3.71278,-1.3712 -1.73183,-1.73184 -1.49568,-3.7318 1.15157,-9.75273 1.02211,-2.32471 2.2063,-5.87284 2.63154,-7.88474 1.26162,-5.96902 5.01896,-19.28533 6.97633,-24.72466 0.47501,-1.32 1.30637,-5.3988 1.84747,-9.064 0.94176,-6.37915 1.14656,-6.98618 4.79103,-14.2013 3.49962,-6.92836 3.84619,-7.91517 4.28978,-12.21463 0.3724,-3.60951 0.90554,-5.54212 2.33527,-8.46537 1.30464,-2.66749 1.95099,-4.8528 2.18501,-7.3875 0.18279,-1.97971 0.68019,-4.432 1.10534,-5.44954 0.42515,-1.01754 0.77301,-3.23786 0.77301,-4.93406 0,-1.6962 0.36393,-4.76391 0.80874,-6.81713 1.22168,-5.63928 1.53356,-11.77506 0.82684,-16.26647 -0.51386,-3.26571 -0.47412,-5.51752 0.21649,-12.26666 1.19757,-11.70362 1.64957,-13.81244 4.02667,-18.78658 1.46891,-3.07376 2.28413,-5.68717 2.68567,-8.60973 0.31709,-2.30796 0.80474,-4.79652 1.08365,-5.53012 0.27892,-0.7336 0.74028,-2.9778 1.02526,-4.98712 0.28497,-2.00931 1.33243,-5.64076 2.32769,-8.06987 0.99526,-2.42912 2.467,-6.67752 3.27053,-9.4409 0.80354,-2.76338 2.35208,-6.96338 3.44121,-9.33334 1.08914,-2.36995 2.50635,-5.89135 3.14938,-7.82532 2.33134,-7.01176 11.54545,-21.28508 18.54112,-28.72153 4.59172,-4.88102 10.74378,-9.70774 16.05637,-12.59732 1.98388,-1.07906 5.8736,-3.30736 8.64383,-4.95179 4.54881,-2.7002 5.38758,-3.00969 8.6576,-3.19446 2.2755,-0.12858 5.001,0.13364 7.33551,0.70574 3.25157,0.79684 4.33319,0.82912 8.67573,0.2589 2.72857,-0.35829 6.82301,-1.08377 9.09875,-1.61218 2.64455,-0.61404 4.6654,-0.80898 5.6,-0.54021 4.56689,1.31336 14.5162,7.36452 25.99562,15.81053 9.07556,6.67736 20.85836,21.05855 22.70932,27.71727 0.4931,1.77392 1.50091,4.41794 2.23956,5.8756 0.73865,1.45766 1.61607,3.66438 1.94982,4.90383 1.29158,4.79656 5.42979,14.13341 8.56314,19.32061 1.8031,2.985 3.83586,7.02794 4.51725,8.9843 0.6814,1.95636 2.15305,5.83702 3.27034,8.62369 1.9637,4.89771 2.03565,5.30676 2.15769,12.26666 0.0694,3.96 0.48596,8.8477 0.92562,10.86156 0.74333,3.40491 0.72912,3.88725 -0.20294,6.88194 -0.84156,2.70394 -0.9526,4.25503 -0.69244,9.67179 0.17042,3.54826 0.6143,7.05138 0.9864,7.78471 0.37211,0.73334 3.24914,3.97334 6.39341,7.2 6.47707,6.6468 7.85006,9.04869 8.78345,15.36571 0.68132,4.61098 0.46092,6.63184 -1.4027,12.86161 -0.95982,3.20853 -1.26459,5.49666 -1.26459,9.49425 0,4.97673 0.10285,5.46567 1.86666,8.87401 1.34346,2.59604 1.86667,4.2977 1.86667,6.07103 0,3.90318 0.62407,4.89653 3.91548,6.23242 3.17356,1.28805 8.94075,6.71 9.94399,9.34869 0.86039,2.263 0.63018,7.18355 -0.53236,11.37869 -0.59548,2.14888 -0.92471,4.46204 -0.73987,5.19848 0.18315,0.72975 1.39386,2.50675 2.69047,3.94889 2.99704,3.33342 6.05562,8.39237 6.05562,10.01609 0,1.53121 -1.60589,4.76812 -3.45691,6.96794 -0.81019,0.96285 -2.46709,1.99646 -4.03541,2.51737 -1.46347,0.48609 -3.02214,1.40302 -3.46372,2.03764 -5.29725,7.61283 -5.58529,8.51806 -4.02048,12.63514 1.98549,5.22397 1.17894,8.74289 -3.74019,16.31806 -1.54326,2.37655 -2.26604,4.19218 -2.65389,6.66667 -0.29316,1.87035 -0.78944,4.19921 -1.10285,5.17524 -0.60073,1.87078 -3.14207,3.81993 -4.98502,3.8234 -0.62266,10e-4 -2.50735,1.555 -4.5775,3.77388 -3.33181,3.57121 -3.78807,3.86437 -8.5756,5.50995 -2.78111,0.95593 -6.78097,2.85357 -8.88857,4.21697 -6.47015,4.18552 -7.62987,4.63453 -11.97037,4.63453 -3.82485,0 -3.95625,-0.0451 -5.83273,-2 z M 375.67118,387.78497 c 2.05672,-0.24114 4.77486,-0.96664 6.04031,-1.61223 1.46,-0.74483 3.4942,-1.22627 5.56634,-1.3174 3.22422,-0.1418 3.29984,-0.18137 5.97888,-3.12933 1.49234,-1.64215 3.24452,-4.04928 3.89372,-5.34919 1.05929,-2.12101 1.14606,-2.87733 0.84583,-7.37259 -0.23103,-3.45923 -0.6572,-5.59834 -1.37731,-6.91342 -1.27142,-2.32185 -5.50386,-5.18355 -9.17109,-6.20089 -1.49389,-0.41443 -4.99618,-1.44738 -7.78284,-2.29545 -6.3275,-1.92564 -16.19811,-3.07316 -18.75809,-2.18075 -3.15946,1.10139 -5.84713,3.40312 -8.44207,7.22981 -1.39921,2.06337 -3.2041,4.35157 -4.01088,5.08491 -5.9209,5.3819 -5.97483,9.1836 -0.23765,16.75027 2.54418,3.35547 3.51976,3.96596 8.23732,5.15466 2.05958,0.51896 4.8247,1.45306 6.1447,2.07577 2.52412,1.19075 3.51453,1.19649 13.07283,0.0758 z m -41.87283,-11.25653 c 0.58667,-0.58667 1.06667,-1.25579 1.06667,-1.48694 0,-2.84618 1.78894,-13.45304 2.56479,-15.20698 1.09702,-2.47999 3.58437,-4.68369 7.90557,-7.00403 1.50537,-0.80834 3.23594,-2.1445 3.84571,-2.96926 1.74774,-2.36396 10.66534,-9.00206 12.90263,-9.60449 1.61507,-0.4349 2.54941,-0.35446 4.6038,0.39636 1.95019,0.71274 4.20002,0.942 9.24416,0.942 h 6.66667 l 9.6,4.8 c 9.50538,4.75269 9.61723,4.82892 11.34813,7.73334 2.29943,3.85841 2.86291,6.06555 3.28314,12.86008 0.37149,6.00649 0.9991,7.68228 3.48782,9.31296 2.82389,1.85028 6.65107,-0.85293 9.08282,-6.41537 3.08896,-7.06579 3.95558,-9.27068 4.5165,-11.49101 0.33346,-1.32 1.18952,-4.2 1.90236,-6.4 0.71282,-2.2 1.77185,-7.24 2.35339,-11.2 0.58154,-3.95999 1.40165,-8.39999 1.82246,-9.86666 0.93744,-3.26728 1.55082,-18.4 0.74583,-18.4 -0.30058,0 -1.44806,0.8145 -2.54996,1.81 -1.48003,1.33711 -2.95999,2.02664 -5.66464,2.63919 -6.1456,1.39187 -15.36571,2.1125 -23.06957,1.80309 -9.93853,-0.39917 -11.2775,-0.93022 -16.22128,-6.43347 -5.12439,-5.70431 -5.87378,-6.84201 -8.00162,-12.14788 -3.14158,-7.83365 -5.68813,-7.71828 -9.07066,0.41095 -2.53932,6.10271 -9.79415,15.97472 -12.83045,17.459 -5.08006,2.48337 -22.2468,1.9378 -33.40901,-1.06177 -5.39784,-1.45053 -7.61639,-1.42701 -8.19733,0.0869 -0.17769,0.46304 0.15584,2.67031 0.74117,4.90505 0.58533,2.23473 1.06424,4.84228 1.06424,5.79457 0,0.95228 0.34056,3.96708 0.7568,6.69955 0.41624,2.73247 1.01835,7.3295 1.33802,10.21561 1.20366,10.86708 7.3636,25.70362 12.82341,30.88585 2.36892,2.24848 3.786,2.49577 5.34843,0.93334 z m 9.33334,-63.95805 c 8.62588,-0.48884 11.56335,-1.38388 12.87664,-3.92349 1.2234,-2.36581 2.10291,-12.70434 1.30681,-15.36149 -0.80504,-2.68699 -2.19589,-3.55909 -8.13716,-5.10223 -3.72166,-0.96664 -6.94842,-1.3359 -13.9973,-1.60183 -10.86486,-0.40988 -13.15891,0.0955 -17.24227,3.79843 l -2.54005,2.30341 0.07,4.98929 c 0.12666,9.02945 2.98439,13.62301 9.26335,14.88997 2.54085,0.51269 9.44057,0.51567 18.4,0.008 z m 67.97122,-1.63457 c 5.211,-0.59907 9.34509,-2.37363 11.11885,-4.77277 1.43268,-1.93779 2.71713,-6.55034 3.13614,-11.26202 0.56572,-6.36144 -1.45841,-8.23347 -9.52943,-8.81337 -7.00389,-0.50322 -21.39895,0.54689 -25.58013,1.86606 -4.28367,1.35151 -6.84999,3.84032 -6.84999,6.64312 0,3.81063 3.73169,11.57139 7.01189,14.58257 0.70956,0.65137 2.24216,1.40725 3.40577,1.67976 2.86325,0.67052 11.77728,0.71005 17.2869,0.0767 z M 382.69235,281.1489 c 7.96332,-3.65542 17.76325,-5.17446 29.5436,-4.57939 8.24754,0.41661 9.5624,0.0831 9.5624,-2.42511 0,-0.85059 -0.24349,-2.18694 -0.54108,-2.96967 -0.2976,-0.78273 -0.89012,-3.74699 -1.31672,-6.58723 -0.92642,-6.16796 -1.60286,-8.19571 -4.79749,-14.3811 -3.49801,-6.77278 -10.60799,-16.96378 -13.21436,-18.94064 -4.73737,-3.59314 -16.58643,-8.43641 -24.98144,-10.21107 -1.93477,-0.40901 -4.76365,-1.23472 -6.28641,-1.83494 -3.59639,-1.41757 -5.08301,-1.37599 -7.80336,0.21825 -1.22902,0.72025 -4.1301,1.81601 -6.44686,2.43502 -4.88297,1.30468 -9.82496,2.93761 -16.21228,5.35687 -5.86513,2.22148 -8.40578,4.74981 -11.86947,11.8119 -1.39488,2.84402 -3.67488,6.68349 -5.06667,8.53217 -3.10176,4.12 -6.85979,11.95746 -7.58911,15.82728 -0.29777,1.58004 -0.54141,5.48004 -0.54141,8.66666 0,5.19004 0.11771,5.91158 1.1294,6.92327 1.02079,1.0208 1.49519,1.09389 4.93333,0.76008 2.09216,-0.20313 5.00393,-0.62446 6.4706,-0.93629 6.26085,-1.33113 23.19026,0.59197 31.49056,3.57717 3.44055,1.23739 4.25749,1.31898 11.2701,1.12554 7.51798,-0.20738 7.58724,-0.22076 12.26667,-2.36877 z"
       style="fill:#000000;fill-opacity:1;stroke-width:0.533333" />
    <path
       style="fill:#a50034;stroke:#000000;stroke-width:19.5241;stroke-linecap:round"
       d="m 368.47674,411.82393 0,259.25826"
       id="path1"
       sodipodi:nodetypes="cc" />
    <path
       style="fill:none;stroke:#000000;stroke-width:19.5241;stroke-linecap:round"
       d="m 272.90609,780.572 c 103.86977,-154.95298 90.94159,-136.76932 191.14129,0"
       id="path2"
       sodipodi:nodetypes="cc" />
    <path
       style="fill:none;stroke:#231f20;stroke-width:19.5241;stroke-linecap:round"
       d="M 215.5637,571.36747 H 521.38977"
       id="path3" />
  </g>
</svg>
