<?xml version="1.0" encoding="UTF-8" standalone="no"?>
<!-- Created with Inkscape (http://www.inkscape.org/) -->

<svg
   version="1.1"
   id="svg41187"
   width="24"
   height="24"
   viewBox="0 0 24 24"
   sodipodi:docname="template.svg"
   inkscape:version="1.3 (0e150ed, 2023-07-21)"
   xmlns:inkscape="http://www.inkscape.org/namespaces/inkscape"
   xmlns:sodipodi="http://sodipodi.sourceforge.net/DTD/sodipodi-0.dtd"
   xmlns="http://www.w3.org/2000/svg"
   xmlns:svg="http://www.w3.org/2000/svg">
  <defs
     id="defs41191">
    <clipPath
       clipPathUnits="userSpaceOnUse"
       id="clipPath41203">
      <path
         d="M 0,24 H 24 V 0 H 0 Z"
         id="path41201" />
    </clipPath>
    <clipPath
       clipPathUnits="userSpaceOnUse"
       id="clipPath41211">
      <path
         d="M 2.00005,22 H 22 V 2.00005 H 2.00005 Z"
         id="path41209" />
    </clipPath>
    <clipPath
       clipPathUnits="userSpaceOnUse"
       id="clipPath41227">
      <path
         d="M 3,21 H 21 V 3 H 3 Z"
         id="path41225" />
    </clipPath>
    <clipPath
       clipPathUnits="userSpaceOnUse"
       id="clipPath41243">
      <path
         d="M 4,22 H 20 V 2 H 4 Z"
         id="path41241" />
    </clipPath>
    <clipPath
       clipPathUnits="userSpaceOnUse"
       id="clipPath41259">
      <path
         d="M 2,20 H 22 V 4 H 2 Z"
         id="path41257" />
    </clipPath>
    <clipPath
       clipPathUnits="userSpaceOnUse"
       id="clipPath41275">
      <path
         d="M 0,24 H 24 V 0 H 0 Z"
         id="path41273" />
    </clipPath>
    <clipPath
       clipPathUnits="userSpaceOnUse"
       id="clipPath41285">
      <path
         d="M 0,48 H 48 V 0 H 0 Z"
         id="path41283" />
    </clipPath>
    <clipPath
       clipPathUnits="userSpaceOnUse"
       id="clipPath41293">
      <path
         d="M 0,24 H 24 V 0 H 0 Z"
         id="path41291" />
    </clipPath>
    <clipPath
       clipPathUnits="userSpaceOnUse"
       id="clipPath41301">
      <path
         d="M -2.13623e-4,24.0002 H 23.9997 V 2.74658e-4 H -2.13623e-4 Z"
         id="path41299" />
    </clipPath>
    <clipPath
       clipPathUnits="userSpaceOnUse"
       id="clipPath41305">
      <path
         d="M -2.13623e-4,47.9998 H 47.9998 V -1.52588e-4 H -2.13623e-4 Z"
         id="path41303" />
    </clipPath>
    <clipPath
       clipPathUnits="userSpaceOnUse"
       id="clipPath41309">
      <path
         d="M 48,48 H 0 V 0 h 48 z"
         id="path41307" />
    </clipPath>
    <clipPath
       clipPathUnits="userSpaceOnUse"
       id="clipPath41517">
      <path
         d="M 0,24 H 24 V 0 H 0 Z"
         id="path41515" />
    </clipPath>
    <clipPath
       clipPathUnits="userSpaceOnUse"
       id="clipPath41527">
      <path
         d="M -2.28882e-4,48.0001 H 47.9998 V 1.2207e-4 H -2.28882e-4 Z"
         id="path41525" />
    </clipPath>
    <clipPath
       clipPathUnits="userSpaceOnUse"
       id="clipPath41535">
      <path
         d="M -2.28882e-4,48.0001 H 47.9998 V 1.2207e-4 H -2.28882e-4 Z"
         id="path41533" />
    </clipPath>
    <clipPath
       clipPathUnits="userSpaceOnUse"
       id="clipPath41539">
      <path
         d="M 0,0 H 48 V 48 H 0 Z"
         id="path41537" />
    </clipPath>
  </defs>
  <sodipodi:namedview
     id="namedview41189"
     pagecolor="#505050"
     bordercolor="#eeeeee"
     borderopacity="1"
     inkscape:showpageshadow="0"
     inkscape:pageopacity="0"
     inkscape:pagecheckerboard="0"
     inkscape:deskcolor="#505050"
     showgrid="true"
     inkscape:zoom="11.857339"
     inkscape:cx="18.638247"
     inkscape:cy="21.716509"
     inkscape:window-width="1512"
     inkscape:window-height="888"
     inkscape:window-x="0"
     inkscape:window-y="38"
     inkscape:window-maximized="0"
     inkscape:current-layer="g41195">
    <inkscape:page
       x="0"
       y="0"
       id="page41193"
       width="24"
       height="24"
       margin="0"
       bleed="0" />
    <inkscape:grid
       type="xygrid"
       id="grid41720"
       originx="0"
       originy="0"
       empspacing="4"
       spacingy="1"
       spacingx="1"
       units="px"
       visible="true" />
  </sodipodi:namedview>
  <g
     id="g41195"
     inkscape:groupmode="layer"
     inkscape:label="ref"
     transform="matrix(1.3333333,0,0,-1.3333333,0,32)">
    <g
       id="g41269"
       style="display:inline"
       transform="matrix(0.75001255,0,0,0.75000536,-5.3597189e-5,5.9998912)">
      <g
         id="g41271"
         clip-path="url(#clipPath41275)">
        <g
           id="g41277"
           transform="matrix(0.4999976,0,0,-0.4999976,-1.144e-4,24.00008)">
          <g
             id="g41279">
            <g
               id="g41281"
               clip-path="url(#clipPath41285)" />
          </g>
        </g>
      </g>
    </g>
    <g
       id="g41511"
       style="display:inline"
       transform="matrix(0.75001255,0,0,0.75000536,-5.3597189e-5,5.9998912)">
      <g
         id="g41513"
         clip-path="url(#clipPath41517)">
        <g
           id="g41519"
           transform="matrix(0.4999976,0,0,-0.4999976,-1.144e-4,24.00008)">
          <g
             id="g41521">
            <g
               id="g41523"
               clip-path="url(#clipPath41527)">
              <g
                 id="g41529">
                <g
                   id="g41531" />
                <g
                   id="g41601">
                  <g
                     clip-path="url(#clipPath41535)"
                     opacity="0.399994"
                     id="g41599">
                    <g
                       id="g41597">
                      <g
                         clip-path="url(#clipPath41539)"
                         id="g41595">
                        <g
                           transform="translate(23.9998,1e-4)"
                           id="g41543">
                          <path
                             d="M 0,0 V 48"
                             style="fill:none;stroke:#000000;stroke-width:0.25;stroke-linecap:butt;stroke-linejoin:miter;stroke-miterlimit:10;stroke-dasharray:none;stroke-opacity:1"
                             id="path41541" />
                        </g>
                        <g
                           transform="translate(47.9998,24.0001)"
                           id="g41547">
                          <path
                             d="M 0,0 H -48"
                             style="fill:none;stroke:#000000;stroke-width:0.25;stroke-linecap:butt;stroke-linejoin:miter;stroke-miterlimit:10;stroke-dasharray:none;stroke-opacity:1"
                             id="path41545" />
                        </g>
                        <g
                           transform="translate(47.9998,16.0001)"
                           id="g41551">
                          <path
                             d="M 0,0 H -48"
                             style="fill:none;stroke:#000000;stroke-width:0.25;stroke-linecap:butt;stroke-linejoin:miter;stroke-miterlimit:10;stroke-dasharray:none;stroke-opacity:1"
                             id="path41549" />
                        </g>
                        <g
                           transform="translate(47.9998,32.0001)"
                           id="g41555">
                          <path
                             d="M 0,0 H -48"
                             style="fill:none;stroke:#000000;stroke-width:0.25;stroke-linecap:butt;stroke-linejoin:miter;stroke-miterlimit:10;stroke-dasharray:none;stroke-opacity:1"
                             id="path41553" />
                        </g>
                        <g
                           transform="translate(31.9998,48.0001)"
                           id="g41559">
                          <path
                             d="M 0,0 V -48"
                             style="fill:none;stroke:#000000;stroke-width:0.25;stroke-linecap:butt;stroke-linejoin:miter;stroke-miterlimit:10;stroke-dasharray:none;stroke-opacity:1"
                             id="path41557" />
                        </g>
                        <g
                           transform="translate(15.9998,48.0001)"
                           id="g41563">
                          <path
                             d="M 0,0 V -48"
                             style="fill:none;stroke:#000000;stroke-width:0.25;stroke-linecap:butt;stroke-linejoin:miter;stroke-miterlimit:10;stroke-dasharray:none;stroke-opacity:1"
                             id="path41561" />
                        </g>
                        <g
                           transform="translate(47.7498,0.2501)"
                           id="g41567">
                          <path
                             d="M 0,0 -47.5,47.5"
                             style="fill:none;stroke:#000000;stroke-width:0.25;stroke-linecap:butt;stroke-linejoin:miter;stroke-miterlimit:10;stroke-dasharray:none;stroke-opacity:1"
                             id="path41565" />
                        </g>
                        <g
                           transform="translate(0.2498,0.2501)"
                           id="g41571">
                          <path
                             d="M 0,0 47.5,47.5"
                             style="fill:none;stroke:#000000;stroke-width:0.25;stroke-linecap:butt;stroke-linejoin:miter;stroke-miterlimit:10;stroke-dasharray:none;stroke-opacity:1"
                             id="path41569" />
                        </g>
                        <g
                           transform="translate(24.0005,13.9999)"
                           id="g41575">
                          <path
                             d="m 0,0 c -5.523,0 -10,4.477 -10,10 0,5.522 4.477,10 10,10 C 5.522,20 10,15.522 10,10 10,4.477 5.522,0 0,0 Z"
                             style="fill:none;stroke:#000000;stroke-width:0.25;stroke-linecap:butt;stroke-linejoin:miter;stroke-miterlimit:10;stroke-dasharray:none;stroke-opacity:1"
                             id="path41573" />
                        </g>
                        <g
                           transform="translate(23.9998,4.0001)"
                           id="g41579">
                          <path
                             d="m 0,0 c -11.054,0 -20,8.947 -20,20 0,11.053 8.946,20 20,20 C 11.053,40 20,31.053 20,20 20,8.947 11.053,0 0,0 Z"
                             style="fill:none;stroke:#000000;stroke-width:0.25;stroke-linecap:butt;stroke-linejoin:miter;stroke-miterlimit:10;stroke-dasharray:none;stroke-opacity:1"
                             id="path41577" />
                        </g>
                        <g
                           transform="translate(37.9998,6.0001)"
                           id="g41583">
                          <path
                             d="m 0,0 h -28 c -2.211,0 -4,1.791 -4,4 v 28 c 0,2.209 1.789,4 4,4 H 0 c 2.211,0 4,-1.791 4,-4 V 4 C 4,1.791 2.211,0 0,0 Z"
                             style="fill:none;stroke:#000000;stroke-width:0.25;stroke-linecap:butt;stroke-linejoin:miter;stroke-miterlimit:10;stroke-dasharray:none;stroke-opacity:1"
                             id="path41581" />
                        </g>
                        <g
                           transform="translate(39.9998,8.0001)"
                           id="g41587">
                          <path
                             d="m 0,0 h -32 c -2.209,0 -4,1.791 -4,4 v 24 c 0,2.209 1.791,4 4,4 H 0 c 2.209,0 4,-1.791 4,-4 V 4 C 4,1.791 2.209,0 0,0 Z"
                             style="fill:none;stroke:#000000;stroke-width:0.25;stroke-linecap:butt;stroke-linejoin:miter;stroke-miterlimit:10;stroke-dasharray:none;stroke-opacity:1"
                             id="path41585" />
                        </g>
                        <g
                           transform="translate(39.9998,40.0001)"
                           id="g41591">
                          <path
                             d="m 0,0 v -32 c 0,-2.209 -1.791,-4 -4,-4 h -24 c -2.209,0 -4,1.791 -4,4 V 0 c 0,2.209 1.791,4 4,4 H -4 C -1.791,4 0,2.209 0,0 Z"
                             style="fill:none;stroke:#000000;stroke-width:0.25;stroke-linecap:butt;stroke-linejoin:miter;stroke-miterlimit:10;stroke-dasharray:none;stroke-opacity:1"
                             id="path41589" />
                        </g>
                        <path
                           d="M 48,0 H 0 V 48 H 48 Z M 47.75,47.75 H 0.25 V 0.25 h 47.5 z"
                           style="fill:#000000;fill-opacity:1;fill-rule:nonzero;stroke:none"
                           id="path41593" />
                      </g>
                    </g>
                  </g>
                </g>
              </g>
            </g>
          </g>
        </g>
      </g>
    </g>
  </g>
  <g
     inkscape:groupmode="layer"
     id="layer7"
     inkscape:label="sketch" />
  <g
     inkscape:groupmode="layer"
     id="layer8"
     inkscape:label="Image" />
</svg>
